%TF.GenerationSoftware,KiCad,Pcbnew,5.1.10-88a1d61d58~90~ubuntu20.04.1*%
%TF.CreationDate,2021-10-18T00:45:22+03:00*%
%TF.ProjectId,PRS_relay_board,5052535f-7265-46c6-9179-5f626f617264,rev?*%
%TF.SameCoordinates,Original*%
%TF.FileFunction,Profile,NP*%
%FSLAX46Y46*%
G04 Gerber Fmt 4.6, Leading zero omitted, Abs format (unit mm)*
G04 Created by KiCad (PCBNEW 5.1.10-88a1d61d58~90~ubuntu20.04.1) date 2021-10-18 00:45:22*
%MOMM*%
%LPD*%
G01*
G04 APERTURE LIST*
%TA.AperFunction,Profile*%
%ADD10C,0.050000*%
%TD*%
G04 APERTURE END LIST*
D10*
X155000000Y-67000000D02*
X104000000Y-67000000D01*
X157000000Y-49000000D02*
X202000000Y-49000000D01*
X62000000Y-49000000D02*
X102000000Y-49000000D01*
X203000000Y-52000000D02*
X203000000Y-50000000D01*
X215000000Y-53000000D02*
X204000000Y-53000000D01*
X217000000Y-66000000D02*
X217000000Y-55000000D01*
X220000000Y-68000000D02*
X220000000Y-167000000D01*
X218000000Y-67000000D02*
X219000000Y-67000000D01*
X202000000Y-49000000D02*
G75*
G02*
X203000000Y-50000000I0J-1000000D01*
G01*
X204000000Y-53000000D02*
G75*
G02*
X203000000Y-52000000I0J1000000D01*
G01*
X218000000Y-67000000D02*
G75*
G02*
X217000000Y-66000000I0J1000000D01*
G01*
X219000000Y-67000000D02*
G75*
G02*
X220000000Y-68000000I0J-1000000D01*
G01*
X215000000Y-182000000D02*
X204000000Y-182000000D01*
X217000000Y-169000000D02*
X217000000Y-180000000D01*
X218000000Y-168000000D02*
X219000000Y-168000000D01*
X220000000Y-167000000D02*
G75*
G02*
X219000000Y-168000000I-1000000J0D01*
G01*
X217000000Y-169000000D02*
G75*
G02*
X218000000Y-168000000I1000000J0D01*
G01*
X203000000Y-185000000D02*
X203000000Y-183000000D01*
X201000000Y-186000000D02*
X202000000Y-186000000D01*
X203000000Y-185000000D02*
G75*
G02*
X202000000Y-186000000I-1000000J0D01*
G01*
X62000000Y-186000000D02*
X201000000Y-186000000D01*
X203000000Y-183000000D02*
G75*
G02*
X204000000Y-182000000I1000000J0D01*
G01*
X217000000Y-180000000D02*
G75*
G02*
X215000000Y-182000000I-2000000J0D01*
G01*
X60000000Y-51000000D02*
X60000000Y-56000000D01*
X60000000Y-56000000D02*
X60000000Y-184000000D01*
X103000000Y-66000000D02*
X103000000Y-50000000D01*
X156000000Y-50000000D02*
X156000000Y-66000000D01*
X156000000Y-50000000D02*
G75*
G02*
X157000000Y-49000000I1000000J0D01*
G01*
X156000000Y-66000000D02*
G75*
G02*
X155000000Y-67000000I-1000000J0D01*
G01*
X104000000Y-67000000D02*
G75*
G02*
X103000000Y-66000000I0J1000000D01*
G01*
X102000000Y-49000000D02*
G75*
G02*
X103000000Y-50000000I0J-1000000D01*
G01*
X62000000Y-186000000D02*
G75*
G02*
X60000000Y-184000000I0J2000000D01*
G01*
X60000000Y-51000000D02*
G75*
G02*
X62000000Y-49000000I2000000J0D01*
G01*
X215000000Y-53000000D02*
G75*
G02*
X217000000Y-55000000I0J-2000000D01*
G01*
M02*
