%TF.GenerationSoftware,KiCad,Pcbnew,5.1.10-88a1d61d58~90~ubuntu20.04.1*%
%TF.CreationDate,2021-10-18T00:45:22+03:00*%
%TF.ProjectId,PRS_relay_board,5052535f-7265-46c6-9179-5f626f617264,rev?*%
%TF.SameCoordinates,Original*%
%TF.FileFunction,Soldermask,Top*%
%TF.FilePolarity,Negative*%
%FSLAX46Y46*%
G04 Gerber Fmt 4.6, Leading zero omitted, Abs format (unit mm)*
G04 Created by KiCad (PCBNEW 5.1.10-88a1d61d58~90~ubuntu20.04.1) date 2021-10-18 00:45:22*
%MOMM*%
%LPD*%
G01*
G04 APERTURE LIST*
%ADD10C,2.775000*%
%ADD11C,1.800000*%
%ADD12C,3.316000*%
%ADD13C,1.428000*%
%ADD14R,1.428000X1.428000*%
%ADD15C,2.400000*%
%ADD16C,3.076000*%
%ADD17C,2.970000*%
%ADD18R,1.635000X1.635000*%
%ADD19C,1.635000*%
%ADD20R,0.450000X1.475000*%
%ADD21R,1.000000X2.750000*%
%ADD22R,5.550000X6.150000*%
%ADD23C,2.700000*%
%ADD24R,2.700000X2.700000*%
%ADD25R,1.550000X0.700000*%
%ADD26C,1.500000*%
%ADD27R,2.790000X0.740000*%
%ADD28R,0.600000X1.150000*%
%ADD29R,0.600000X0.450000*%
%ADD30R,0.800000X1.900000*%
%ADD31R,1.900000X0.800000*%
%ADD32C,2.025000*%
%ADD33O,1.700000X1.950000*%
%ADD34C,3.200000*%
G04 APERTURE END LIST*
D10*
%TO.C,S8*%
X188500000Y-168500000D03*
X188500000Y-164690000D03*
X188500000Y-160880000D03*
X191040000Y-181200000D03*
X185960000Y-181200000D03*
%TD*%
%TO.C,S7*%
X176500000Y-168500000D03*
X176500000Y-164690000D03*
X176500000Y-160880000D03*
X179040000Y-181200000D03*
X173960000Y-181200000D03*
%TD*%
%TO.C,S6*%
X152000000Y-168500000D03*
X152000000Y-164690000D03*
X152000000Y-160880000D03*
X154540000Y-181200000D03*
X149460000Y-181200000D03*
%TD*%
%TO.C,S5*%
X140000000Y-168500000D03*
X140000000Y-164690000D03*
X140000000Y-160880000D03*
X142540000Y-181200000D03*
X137460000Y-181200000D03*
%TD*%
%TO.C,S4*%
X115500000Y-168500000D03*
X115500000Y-164690000D03*
X115500000Y-160880000D03*
X118040000Y-181200000D03*
X112960000Y-181200000D03*
%TD*%
%TO.C,S3*%
X103500000Y-168500000D03*
X103500000Y-164690000D03*
X103500000Y-160880000D03*
X106040000Y-181200000D03*
X100960000Y-181200000D03*
%TD*%
%TO.C,S2*%
X79000000Y-168500000D03*
X79000000Y-164690000D03*
X79000000Y-160880000D03*
X81540000Y-181200000D03*
X76460000Y-181200000D03*
%TD*%
%TO.C,S1*%
X67000000Y-168500000D03*
X67000000Y-164690000D03*
X67000000Y-160880000D03*
X69540000Y-181200000D03*
X64460000Y-181200000D03*
%TD*%
D11*
%TO.C,RV4*%
X82500000Y-66100000D03*
X75000000Y-63000000D03*
%TD*%
%TO.C,RV3*%
X97800000Y-66100000D03*
X90300000Y-63000000D03*
%TD*%
%TO.C,RV2*%
X168500000Y-66100000D03*
X161000000Y-63000000D03*
%TD*%
%TO.C,RV1*%
X183800000Y-66100000D03*
X176300000Y-63000000D03*
%TD*%
%TO.C,R44*%
G36*
G01*
X131737500Y-71575000D02*
X131262500Y-71575000D01*
G75*
G02*
X131025000Y-71337500I0J237500D01*
G01*
X131025000Y-70837500D01*
G75*
G02*
X131262500Y-70600000I237500J0D01*
G01*
X131737500Y-70600000D01*
G75*
G02*
X131975000Y-70837500I0J-237500D01*
G01*
X131975000Y-71337500D01*
G75*
G02*
X131737500Y-71575000I-237500J0D01*
G01*
G37*
G36*
G01*
X131737500Y-73400000D02*
X131262500Y-73400000D01*
G75*
G02*
X131025000Y-73162500I0J237500D01*
G01*
X131025000Y-72662500D01*
G75*
G02*
X131262500Y-72425000I237500J0D01*
G01*
X131737500Y-72425000D01*
G75*
G02*
X131975000Y-72662500I0J-237500D01*
G01*
X131975000Y-73162500D01*
G75*
G02*
X131737500Y-73400000I-237500J0D01*
G01*
G37*
%TD*%
D12*
%TO.C,J3*%
X191000000Y-57590000D03*
X203040000Y-57590000D03*
D13*
X195770000Y-60300000D03*
X198270000Y-60300000D03*
D14*
X195770000Y-62300000D03*
D13*
X198270000Y-62300000D03*
%TD*%
D15*
%TO.C,J2*%
X97860000Y-55000000D03*
X90240000Y-55000000D03*
X82620000Y-55000000D03*
X75000000Y-55000000D03*
%TD*%
%TO.C,J1*%
X183860000Y-55000000D03*
X176240000Y-55000000D03*
X168620000Y-55000000D03*
X161000000Y-55000000D03*
%TD*%
D16*
%TO.C,K4*%
X87970000Y-80760000D03*
D17*
X70190000Y-83300000D03*
D18*
X74000000Y-96000000D03*
D19*
X84160000Y-96000000D03*
%TD*%
D16*
%TO.C,K3*%
X118970000Y-85760000D03*
D17*
X101190000Y-88300000D03*
D18*
X105000000Y-101000000D03*
D19*
X115160000Y-101000000D03*
%TD*%
D16*
%TO.C,K2*%
X159970000Y-85760000D03*
D17*
X142190000Y-88300000D03*
D18*
X146000000Y-101000000D03*
D19*
X156160000Y-101000000D03*
%TD*%
D16*
%TO.C,K1*%
X190970000Y-80760000D03*
D17*
X173190000Y-83300000D03*
D18*
X177000000Y-96000000D03*
D19*
X187160000Y-96000000D03*
%TD*%
D20*
%TO.C,U1*%
X129025000Y-95788000D03*
X129675000Y-95788000D03*
X130325000Y-95788000D03*
X130975000Y-95788000D03*
X130975000Y-100212000D03*
X130325000Y-100212000D03*
X129675000Y-100212000D03*
X129025000Y-100212000D03*
%TD*%
D21*
%TO.C,U5*%
X143290000Y-134000000D03*
D22*
X141000000Y-127300000D03*
D21*
X138710000Y-134000000D03*
%TD*%
D23*
%TO.C,J5*%
X68000000Y-143080000D03*
X68000000Y-138000000D03*
D24*
X68000000Y-132920000D03*
%TD*%
D25*
%TO.C,U3*%
X169725000Y-159190000D03*
X169725000Y-160460000D03*
X169725000Y-161730000D03*
X169725000Y-163000000D03*
X169725000Y-164270000D03*
X169725000Y-165540000D03*
X169725000Y-166810000D03*
X164275000Y-166810000D03*
X164275000Y-165540000D03*
X164275000Y-164270000D03*
X164275000Y-163000000D03*
X164275000Y-161730000D03*
X164275000Y-160460000D03*
X164275000Y-159190000D03*
%TD*%
D26*
%TO.C,LED4*%
X200040000Y-178960000D03*
X197500000Y-178960000D03*
X200040000Y-181500000D03*
X197500000Y-181500000D03*
%TD*%
%TO.C,LED3*%
X163540000Y-178960000D03*
X161000000Y-178960000D03*
X163540000Y-181500000D03*
X161000000Y-181500000D03*
%TD*%
%TO.C,LED2*%
X127040000Y-178960000D03*
X124500000Y-178960000D03*
X127040000Y-181500000D03*
X124500000Y-181500000D03*
%TD*%
%TO.C,LED1*%
X90540000Y-178960000D03*
X88000000Y-178960000D03*
X90540000Y-181500000D03*
X88000000Y-181500000D03*
%TD*%
D27*
%TO.C,J4*%
X179035000Y-130540000D03*
X174965000Y-130540000D03*
X179035000Y-129270000D03*
X174965000Y-129270000D03*
X179035000Y-128000000D03*
X174965000Y-128000000D03*
X179035000Y-126730000D03*
X174965000Y-126730000D03*
X179035000Y-125460000D03*
X174965000Y-125460000D03*
%TD*%
D28*
%TO.C,U4*%
X202950000Y-69300000D03*
X202000000Y-69300000D03*
X201050000Y-69300000D03*
X201050000Y-66700000D03*
X202000000Y-66700000D03*
X202950000Y-66700000D03*
%TD*%
%TO.C,C13*%
G36*
G01*
X153900000Y-130349999D02*
X153900000Y-131650001D01*
G75*
G02*
X153650001Y-131900000I-249999J0D01*
G01*
X152824999Y-131900000D01*
G75*
G02*
X152575000Y-131650001I0J249999D01*
G01*
X152575000Y-130349999D01*
G75*
G02*
X152824999Y-130100000I249999J0D01*
G01*
X153650001Y-130100000D01*
G75*
G02*
X153900000Y-130349999I0J-249999D01*
G01*
G37*
G36*
G01*
X157025000Y-130349999D02*
X157025000Y-131650001D01*
G75*
G02*
X156775001Y-131900000I-249999J0D01*
G01*
X155949999Y-131900000D01*
G75*
G02*
X155700000Y-131650001I0J249999D01*
G01*
X155700000Y-130349999D01*
G75*
G02*
X155949999Y-130100000I249999J0D01*
G01*
X156775001Y-130100000D01*
G75*
G02*
X157025000Y-130349999I0J-249999D01*
G01*
G37*
%TD*%
D29*
%TO.C,D7*%
X70950000Y-106000000D03*
X73050000Y-106000000D03*
%TD*%
%TO.C,D5*%
X101950000Y-111000000D03*
X104050000Y-111000000D03*
%TD*%
%TO.C,D3*%
X142950000Y-111000000D03*
X145050000Y-111000000D03*
%TD*%
%TO.C,D1*%
X173950000Y-106000000D03*
X176050000Y-106000000D03*
%TD*%
%TO.C,U2*%
G36*
G01*
X159950000Y-132450000D02*
X159950000Y-131200000D01*
G75*
G02*
X160075000Y-131075000I125000J0D01*
G01*
X160325000Y-131075000D01*
G75*
G02*
X160450000Y-131200000I0J-125000D01*
G01*
X160450000Y-132450000D01*
G75*
G02*
X160325000Y-132575000I-125000J0D01*
G01*
X160075000Y-132575000D01*
G75*
G02*
X159950000Y-132450000I0J125000D01*
G01*
G37*
G36*
G01*
X160750000Y-132450000D02*
X160750000Y-131200000D01*
G75*
G02*
X160875000Y-131075000I125000J0D01*
G01*
X161125000Y-131075000D01*
G75*
G02*
X161250000Y-131200000I0J-125000D01*
G01*
X161250000Y-132450000D01*
G75*
G02*
X161125000Y-132575000I-125000J0D01*
G01*
X160875000Y-132575000D01*
G75*
G02*
X160750000Y-132450000I0J125000D01*
G01*
G37*
G36*
G01*
X161550000Y-132450000D02*
X161550000Y-131200000D01*
G75*
G02*
X161675000Y-131075000I125000J0D01*
G01*
X161925000Y-131075000D01*
G75*
G02*
X162050000Y-131200000I0J-125000D01*
G01*
X162050000Y-132450000D01*
G75*
G02*
X161925000Y-132575000I-125000J0D01*
G01*
X161675000Y-132575000D01*
G75*
G02*
X161550000Y-132450000I0J125000D01*
G01*
G37*
G36*
G01*
X162350000Y-132450000D02*
X162350000Y-131200000D01*
G75*
G02*
X162475000Y-131075000I125000J0D01*
G01*
X162725000Y-131075000D01*
G75*
G02*
X162850000Y-131200000I0J-125000D01*
G01*
X162850000Y-132450000D01*
G75*
G02*
X162725000Y-132575000I-125000J0D01*
G01*
X162475000Y-132575000D01*
G75*
G02*
X162350000Y-132450000I0J125000D01*
G01*
G37*
G36*
G01*
X163150000Y-132450000D02*
X163150000Y-131200000D01*
G75*
G02*
X163275000Y-131075000I125000J0D01*
G01*
X163525000Y-131075000D01*
G75*
G02*
X163650000Y-131200000I0J-125000D01*
G01*
X163650000Y-132450000D01*
G75*
G02*
X163525000Y-132575000I-125000J0D01*
G01*
X163275000Y-132575000D01*
G75*
G02*
X163150000Y-132450000I0J125000D01*
G01*
G37*
G36*
G01*
X163950000Y-132450000D02*
X163950000Y-131200000D01*
G75*
G02*
X164075000Y-131075000I125000J0D01*
G01*
X164325000Y-131075000D01*
G75*
G02*
X164450000Y-131200000I0J-125000D01*
G01*
X164450000Y-132450000D01*
G75*
G02*
X164325000Y-132575000I-125000J0D01*
G01*
X164075000Y-132575000D01*
G75*
G02*
X163950000Y-132450000I0J125000D01*
G01*
G37*
G36*
G01*
X164750000Y-132450000D02*
X164750000Y-131200000D01*
G75*
G02*
X164875000Y-131075000I125000J0D01*
G01*
X165125000Y-131075000D01*
G75*
G02*
X165250000Y-131200000I0J-125000D01*
G01*
X165250000Y-132450000D01*
G75*
G02*
X165125000Y-132575000I-125000J0D01*
G01*
X164875000Y-132575000D01*
G75*
G02*
X164750000Y-132450000I0J125000D01*
G01*
G37*
G36*
G01*
X165550000Y-132450000D02*
X165550000Y-131200000D01*
G75*
G02*
X165675000Y-131075000I125000J0D01*
G01*
X165925000Y-131075000D01*
G75*
G02*
X166050000Y-131200000I0J-125000D01*
G01*
X166050000Y-132450000D01*
G75*
G02*
X165925000Y-132575000I-125000J0D01*
G01*
X165675000Y-132575000D01*
G75*
G02*
X165550000Y-132450000I0J125000D01*
G01*
G37*
G36*
G01*
X166425000Y-133325000D02*
X166425000Y-133075000D01*
G75*
G02*
X166550000Y-132950000I125000J0D01*
G01*
X167800000Y-132950000D01*
G75*
G02*
X167925000Y-133075000I0J-125000D01*
G01*
X167925000Y-133325000D01*
G75*
G02*
X167800000Y-133450000I-125000J0D01*
G01*
X166550000Y-133450000D01*
G75*
G02*
X166425000Y-133325000I0J125000D01*
G01*
G37*
G36*
G01*
X166425000Y-134125000D02*
X166425000Y-133875000D01*
G75*
G02*
X166550000Y-133750000I125000J0D01*
G01*
X167800000Y-133750000D01*
G75*
G02*
X167925000Y-133875000I0J-125000D01*
G01*
X167925000Y-134125000D01*
G75*
G02*
X167800000Y-134250000I-125000J0D01*
G01*
X166550000Y-134250000D01*
G75*
G02*
X166425000Y-134125000I0J125000D01*
G01*
G37*
G36*
G01*
X166425000Y-134925000D02*
X166425000Y-134675000D01*
G75*
G02*
X166550000Y-134550000I125000J0D01*
G01*
X167800000Y-134550000D01*
G75*
G02*
X167925000Y-134675000I0J-125000D01*
G01*
X167925000Y-134925000D01*
G75*
G02*
X167800000Y-135050000I-125000J0D01*
G01*
X166550000Y-135050000D01*
G75*
G02*
X166425000Y-134925000I0J125000D01*
G01*
G37*
G36*
G01*
X166425000Y-135725000D02*
X166425000Y-135475000D01*
G75*
G02*
X166550000Y-135350000I125000J0D01*
G01*
X167800000Y-135350000D01*
G75*
G02*
X167925000Y-135475000I0J-125000D01*
G01*
X167925000Y-135725000D01*
G75*
G02*
X167800000Y-135850000I-125000J0D01*
G01*
X166550000Y-135850000D01*
G75*
G02*
X166425000Y-135725000I0J125000D01*
G01*
G37*
G36*
G01*
X166425000Y-136525000D02*
X166425000Y-136275000D01*
G75*
G02*
X166550000Y-136150000I125000J0D01*
G01*
X167800000Y-136150000D01*
G75*
G02*
X167925000Y-136275000I0J-125000D01*
G01*
X167925000Y-136525000D01*
G75*
G02*
X167800000Y-136650000I-125000J0D01*
G01*
X166550000Y-136650000D01*
G75*
G02*
X166425000Y-136525000I0J125000D01*
G01*
G37*
G36*
G01*
X166425000Y-137325000D02*
X166425000Y-137075000D01*
G75*
G02*
X166550000Y-136950000I125000J0D01*
G01*
X167800000Y-136950000D01*
G75*
G02*
X167925000Y-137075000I0J-125000D01*
G01*
X167925000Y-137325000D01*
G75*
G02*
X167800000Y-137450000I-125000J0D01*
G01*
X166550000Y-137450000D01*
G75*
G02*
X166425000Y-137325000I0J125000D01*
G01*
G37*
G36*
G01*
X166425000Y-138125000D02*
X166425000Y-137875000D01*
G75*
G02*
X166550000Y-137750000I125000J0D01*
G01*
X167800000Y-137750000D01*
G75*
G02*
X167925000Y-137875000I0J-125000D01*
G01*
X167925000Y-138125000D01*
G75*
G02*
X167800000Y-138250000I-125000J0D01*
G01*
X166550000Y-138250000D01*
G75*
G02*
X166425000Y-138125000I0J125000D01*
G01*
G37*
G36*
G01*
X166425000Y-138925000D02*
X166425000Y-138675000D01*
G75*
G02*
X166550000Y-138550000I125000J0D01*
G01*
X167800000Y-138550000D01*
G75*
G02*
X167925000Y-138675000I0J-125000D01*
G01*
X167925000Y-138925000D01*
G75*
G02*
X167800000Y-139050000I-125000J0D01*
G01*
X166550000Y-139050000D01*
G75*
G02*
X166425000Y-138925000I0J125000D01*
G01*
G37*
G36*
G01*
X165550000Y-140800000D02*
X165550000Y-139550000D01*
G75*
G02*
X165675000Y-139425000I125000J0D01*
G01*
X165925000Y-139425000D01*
G75*
G02*
X166050000Y-139550000I0J-125000D01*
G01*
X166050000Y-140800000D01*
G75*
G02*
X165925000Y-140925000I-125000J0D01*
G01*
X165675000Y-140925000D01*
G75*
G02*
X165550000Y-140800000I0J125000D01*
G01*
G37*
G36*
G01*
X164750000Y-140800000D02*
X164750000Y-139550000D01*
G75*
G02*
X164875000Y-139425000I125000J0D01*
G01*
X165125000Y-139425000D01*
G75*
G02*
X165250000Y-139550000I0J-125000D01*
G01*
X165250000Y-140800000D01*
G75*
G02*
X165125000Y-140925000I-125000J0D01*
G01*
X164875000Y-140925000D01*
G75*
G02*
X164750000Y-140800000I0J125000D01*
G01*
G37*
G36*
G01*
X163950000Y-140800000D02*
X163950000Y-139550000D01*
G75*
G02*
X164075000Y-139425000I125000J0D01*
G01*
X164325000Y-139425000D01*
G75*
G02*
X164450000Y-139550000I0J-125000D01*
G01*
X164450000Y-140800000D01*
G75*
G02*
X164325000Y-140925000I-125000J0D01*
G01*
X164075000Y-140925000D01*
G75*
G02*
X163950000Y-140800000I0J125000D01*
G01*
G37*
G36*
G01*
X163150000Y-140800000D02*
X163150000Y-139550000D01*
G75*
G02*
X163275000Y-139425000I125000J0D01*
G01*
X163525000Y-139425000D01*
G75*
G02*
X163650000Y-139550000I0J-125000D01*
G01*
X163650000Y-140800000D01*
G75*
G02*
X163525000Y-140925000I-125000J0D01*
G01*
X163275000Y-140925000D01*
G75*
G02*
X163150000Y-140800000I0J125000D01*
G01*
G37*
G36*
G01*
X162350000Y-140800000D02*
X162350000Y-139550000D01*
G75*
G02*
X162475000Y-139425000I125000J0D01*
G01*
X162725000Y-139425000D01*
G75*
G02*
X162850000Y-139550000I0J-125000D01*
G01*
X162850000Y-140800000D01*
G75*
G02*
X162725000Y-140925000I-125000J0D01*
G01*
X162475000Y-140925000D01*
G75*
G02*
X162350000Y-140800000I0J125000D01*
G01*
G37*
G36*
G01*
X161550000Y-140800000D02*
X161550000Y-139550000D01*
G75*
G02*
X161675000Y-139425000I125000J0D01*
G01*
X161925000Y-139425000D01*
G75*
G02*
X162050000Y-139550000I0J-125000D01*
G01*
X162050000Y-140800000D01*
G75*
G02*
X161925000Y-140925000I-125000J0D01*
G01*
X161675000Y-140925000D01*
G75*
G02*
X161550000Y-140800000I0J125000D01*
G01*
G37*
G36*
G01*
X160750000Y-140800000D02*
X160750000Y-139550000D01*
G75*
G02*
X160875000Y-139425000I125000J0D01*
G01*
X161125000Y-139425000D01*
G75*
G02*
X161250000Y-139550000I0J-125000D01*
G01*
X161250000Y-140800000D01*
G75*
G02*
X161125000Y-140925000I-125000J0D01*
G01*
X160875000Y-140925000D01*
G75*
G02*
X160750000Y-140800000I0J125000D01*
G01*
G37*
G36*
G01*
X159950000Y-140800000D02*
X159950000Y-139550000D01*
G75*
G02*
X160075000Y-139425000I125000J0D01*
G01*
X160325000Y-139425000D01*
G75*
G02*
X160450000Y-139550000I0J-125000D01*
G01*
X160450000Y-140800000D01*
G75*
G02*
X160325000Y-140925000I-125000J0D01*
G01*
X160075000Y-140925000D01*
G75*
G02*
X159950000Y-140800000I0J125000D01*
G01*
G37*
G36*
G01*
X158075000Y-138925000D02*
X158075000Y-138675000D01*
G75*
G02*
X158200000Y-138550000I125000J0D01*
G01*
X159450000Y-138550000D01*
G75*
G02*
X159575000Y-138675000I0J-125000D01*
G01*
X159575000Y-138925000D01*
G75*
G02*
X159450000Y-139050000I-125000J0D01*
G01*
X158200000Y-139050000D01*
G75*
G02*
X158075000Y-138925000I0J125000D01*
G01*
G37*
G36*
G01*
X158075000Y-138125000D02*
X158075000Y-137875000D01*
G75*
G02*
X158200000Y-137750000I125000J0D01*
G01*
X159450000Y-137750000D01*
G75*
G02*
X159575000Y-137875000I0J-125000D01*
G01*
X159575000Y-138125000D01*
G75*
G02*
X159450000Y-138250000I-125000J0D01*
G01*
X158200000Y-138250000D01*
G75*
G02*
X158075000Y-138125000I0J125000D01*
G01*
G37*
G36*
G01*
X158075000Y-137325000D02*
X158075000Y-137075000D01*
G75*
G02*
X158200000Y-136950000I125000J0D01*
G01*
X159450000Y-136950000D01*
G75*
G02*
X159575000Y-137075000I0J-125000D01*
G01*
X159575000Y-137325000D01*
G75*
G02*
X159450000Y-137450000I-125000J0D01*
G01*
X158200000Y-137450000D01*
G75*
G02*
X158075000Y-137325000I0J125000D01*
G01*
G37*
G36*
G01*
X158075000Y-136525000D02*
X158075000Y-136275000D01*
G75*
G02*
X158200000Y-136150000I125000J0D01*
G01*
X159450000Y-136150000D01*
G75*
G02*
X159575000Y-136275000I0J-125000D01*
G01*
X159575000Y-136525000D01*
G75*
G02*
X159450000Y-136650000I-125000J0D01*
G01*
X158200000Y-136650000D01*
G75*
G02*
X158075000Y-136525000I0J125000D01*
G01*
G37*
G36*
G01*
X158075000Y-135725000D02*
X158075000Y-135475000D01*
G75*
G02*
X158200000Y-135350000I125000J0D01*
G01*
X159450000Y-135350000D01*
G75*
G02*
X159575000Y-135475000I0J-125000D01*
G01*
X159575000Y-135725000D01*
G75*
G02*
X159450000Y-135850000I-125000J0D01*
G01*
X158200000Y-135850000D01*
G75*
G02*
X158075000Y-135725000I0J125000D01*
G01*
G37*
G36*
G01*
X158075000Y-134925000D02*
X158075000Y-134675000D01*
G75*
G02*
X158200000Y-134550000I125000J0D01*
G01*
X159450000Y-134550000D01*
G75*
G02*
X159575000Y-134675000I0J-125000D01*
G01*
X159575000Y-134925000D01*
G75*
G02*
X159450000Y-135050000I-125000J0D01*
G01*
X158200000Y-135050000D01*
G75*
G02*
X158075000Y-134925000I0J125000D01*
G01*
G37*
G36*
G01*
X158075000Y-134125000D02*
X158075000Y-133875000D01*
G75*
G02*
X158200000Y-133750000I125000J0D01*
G01*
X159450000Y-133750000D01*
G75*
G02*
X159575000Y-133875000I0J-125000D01*
G01*
X159575000Y-134125000D01*
G75*
G02*
X159450000Y-134250000I-125000J0D01*
G01*
X158200000Y-134250000D01*
G75*
G02*
X158075000Y-134125000I0J125000D01*
G01*
G37*
G36*
G01*
X158075000Y-133325000D02*
X158075000Y-133075000D01*
G75*
G02*
X158200000Y-132950000I125000J0D01*
G01*
X159450000Y-132950000D01*
G75*
G02*
X159575000Y-133075000I0J-125000D01*
G01*
X159575000Y-133325000D01*
G75*
G02*
X159450000Y-133450000I-125000J0D01*
G01*
X158200000Y-133450000D01*
G75*
G02*
X158075000Y-133325000I0J125000D01*
G01*
G37*
%TD*%
%TO.C,R43*%
G36*
G01*
X128737500Y-71575000D02*
X128262500Y-71575000D01*
G75*
G02*
X128025000Y-71337500I0J237500D01*
G01*
X128025000Y-70837500D01*
G75*
G02*
X128262500Y-70600000I237500J0D01*
G01*
X128737500Y-70600000D01*
G75*
G02*
X128975000Y-70837500I0J-237500D01*
G01*
X128975000Y-71337500D01*
G75*
G02*
X128737500Y-71575000I-237500J0D01*
G01*
G37*
G36*
G01*
X128737500Y-73400000D02*
X128262500Y-73400000D01*
G75*
G02*
X128025000Y-73162500I0J237500D01*
G01*
X128025000Y-72662500D01*
G75*
G02*
X128262500Y-72425000I237500J0D01*
G01*
X128737500Y-72425000D01*
G75*
G02*
X128975000Y-72662500I0J-237500D01*
G01*
X128975000Y-73162500D01*
G75*
G02*
X128737500Y-73400000I-237500J0D01*
G01*
G37*
%TD*%
%TO.C,R42*%
G36*
G01*
X129762500Y-72425000D02*
X130237500Y-72425000D01*
G75*
G02*
X130475000Y-72662500I0J-237500D01*
G01*
X130475000Y-73162500D01*
G75*
G02*
X130237500Y-73400000I-237500J0D01*
G01*
X129762500Y-73400000D01*
G75*
G02*
X129525000Y-73162500I0J237500D01*
G01*
X129525000Y-72662500D01*
G75*
G02*
X129762500Y-72425000I237500J0D01*
G01*
G37*
G36*
G01*
X129762500Y-70600000D02*
X130237500Y-70600000D01*
G75*
G02*
X130475000Y-70837500I0J-237500D01*
G01*
X130475000Y-71337500D01*
G75*
G02*
X130237500Y-71575000I-237500J0D01*
G01*
X129762500Y-71575000D01*
G75*
G02*
X129525000Y-71337500I0J237500D01*
G01*
X129525000Y-70837500D01*
G75*
G02*
X129762500Y-70600000I237500J0D01*
G01*
G37*
%TD*%
%TO.C,R41*%
G36*
G01*
X131262500Y-84925000D02*
X131737500Y-84925000D01*
G75*
G02*
X131975000Y-85162500I0J-237500D01*
G01*
X131975000Y-85662500D01*
G75*
G02*
X131737500Y-85900000I-237500J0D01*
G01*
X131262500Y-85900000D01*
G75*
G02*
X131025000Y-85662500I0J237500D01*
G01*
X131025000Y-85162500D01*
G75*
G02*
X131262500Y-84925000I237500J0D01*
G01*
G37*
G36*
G01*
X131262500Y-83100000D02*
X131737500Y-83100000D01*
G75*
G02*
X131975000Y-83337500I0J-237500D01*
G01*
X131975000Y-83837500D01*
G75*
G02*
X131737500Y-84075000I-237500J0D01*
G01*
X131262500Y-84075000D01*
G75*
G02*
X131025000Y-83837500I0J237500D01*
G01*
X131025000Y-83337500D01*
G75*
G02*
X131262500Y-83100000I237500J0D01*
G01*
G37*
%TD*%
%TO.C,R40*%
G36*
G01*
X131262500Y-78925000D02*
X131737500Y-78925000D01*
G75*
G02*
X131975000Y-79162500I0J-237500D01*
G01*
X131975000Y-79662500D01*
G75*
G02*
X131737500Y-79900000I-237500J0D01*
G01*
X131262500Y-79900000D01*
G75*
G02*
X131025000Y-79662500I0J237500D01*
G01*
X131025000Y-79162500D01*
G75*
G02*
X131262500Y-78925000I237500J0D01*
G01*
G37*
G36*
G01*
X131262500Y-77100000D02*
X131737500Y-77100000D01*
G75*
G02*
X131975000Y-77337500I0J-237500D01*
G01*
X131975000Y-77837500D01*
G75*
G02*
X131737500Y-78075000I-237500J0D01*
G01*
X131262500Y-78075000D01*
G75*
G02*
X131025000Y-77837500I0J237500D01*
G01*
X131025000Y-77337500D01*
G75*
G02*
X131262500Y-77100000I237500J0D01*
G01*
G37*
%TD*%
%TO.C,R39*%
G36*
G01*
X165962500Y-126425000D02*
X166437500Y-126425000D01*
G75*
G02*
X166675000Y-126662500I0J-237500D01*
G01*
X166675000Y-127162500D01*
G75*
G02*
X166437500Y-127400000I-237500J0D01*
G01*
X165962500Y-127400000D01*
G75*
G02*
X165725000Y-127162500I0J237500D01*
G01*
X165725000Y-126662500D01*
G75*
G02*
X165962500Y-126425000I237500J0D01*
G01*
G37*
G36*
G01*
X165962500Y-124600000D02*
X166437500Y-124600000D01*
G75*
G02*
X166675000Y-124837500I0J-237500D01*
G01*
X166675000Y-125337500D01*
G75*
G02*
X166437500Y-125575000I-237500J0D01*
G01*
X165962500Y-125575000D01*
G75*
G02*
X165725000Y-125337500I0J237500D01*
G01*
X165725000Y-124837500D01*
G75*
G02*
X165962500Y-124600000I237500J0D01*
G01*
G37*
%TD*%
%TO.C,R38*%
G36*
G01*
X163962500Y-126425000D02*
X164437500Y-126425000D01*
G75*
G02*
X164675000Y-126662500I0J-237500D01*
G01*
X164675000Y-127162500D01*
G75*
G02*
X164437500Y-127400000I-237500J0D01*
G01*
X163962500Y-127400000D01*
G75*
G02*
X163725000Y-127162500I0J237500D01*
G01*
X163725000Y-126662500D01*
G75*
G02*
X163962500Y-126425000I237500J0D01*
G01*
G37*
G36*
G01*
X163962500Y-124600000D02*
X164437500Y-124600000D01*
G75*
G02*
X164675000Y-124837500I0J-237500D01*
G01*
X164675000Y-125337500D01*
G75*
G02*
X164437500Y-125575000I-237500J0D01*
G01*
X163962500Y-125575000D01*
G75*
G02*
X163725000Y-125337500I0J237500D01*
G01*
X163725000Y-124837500D01*
G75*
G02*
X163962500Y-124600000I237500J0D01*
G01*
G37*
%TD*%
%TO.C,R37*%
G36*
G01*
X161962500Y-126425000D02*
X162437500Y-126425000D01*
G75*
G02*
X162675000Y-126662500I0J-237500D01*
G01*
X162675000Y-127162500D01*
G75*
G02*
X162437500Y-127400000I-237500J0D01*
G01*
X161962500Y-127400000D01*
G75*
G02*
X161725000Y-127162500I0J237500D01*
G01*
X161725000Y-126662500D01*
G75*
G02*
X161962500Y-126425000I237500J0D01*
G01*
G37*
G36*
G01*
X161962500Y-124600000D02*
X162437500Y-124600000D01*
G75*
G02*
X162675000Y-124837500I0J-237500D01*
G01*
X162675000Y-125337500D01*
G75*
G02*
X162437500Y-125575000I-237500J0D01*
G01*
X161962500Y-125575000D01*
G75*
G02*
X161725000Y-125337500I0J237500D01*
G01*
X161725000Y-124837500D01*
G75*
G02*
X161962500Y-124600000I237500J0D01*
G01*
G37*
%TD*%
%TO.C,R36*%
G36*
G01*
X193925000Y-164737500D02*
X193925000Y-164262500D01*
G75*
G02*
X194162500Y-164025000I237500J0D01*
G01*
X194662500Y-164025000D01*
G75*
G02*
X194900000Y-164262500I0J-237500D01*
G01*
X194900000Y-164737500D01*
G75*
G02*
X194662500Y-164975000I-237500J0D01*
G01*
X194162500Y-164975000D01*
G75*
G02*
X193925000Y-164737500I0J237500D01*
G01*
G37*
G36*
G01*
X192100000Y-164737500D02*
X192100000Y-164262500D01*
G75*
G02*
X192337500Y-164025000I237500J0D01*
G01*
X192837500Y-164025000D01*
G75*
G02*
X193075000Y-164262500I0J-237500D01*
G01*
X193075000Y-164737500D01*
G75*
G02*
X192837500Y-164975000I-237500J0D01*
G01*
X192337500Y-164975000D01*
G75*
G02*
X192100000Y-164737500I0J237500D01*
G01*
G37*
%TD*%
%TO.C,R35*%
G36*
G01*
X181925000Y-164737500D02*
X181925000Y-164262500D01*
G75*
G02*
X182162500Y-164025000I237500J0D01*
G01*
X182662500Y-164025000D01*
G75*
G02*
X182900000Y-164262500I0J-237500D01*
G01*
X182900000Y-164737500D01*
G75*
G02*
X182662500Y-164975000I-237500J0D01*
G01*
X182162500Y-164975000D01*
G75*
G02*
X181925000Y-164737500I0J237500D01*
G01*
G37*
G36*
G01*
X180100000Y-164737500D02*
X180100000Y-164262500D01*
G75*
G02*
X180337500Y-164025000I237500J0D01*
G01*
X180837500Y-164025000D01*
G75*
G02*
X181075000Y-164262500I0J-237500D01*
G01*
X181075000Y-164737500D01*
G75*
G02*
X180837500Y-164975000I-237500J0D01*
G01*
X180337500Y-164975000D01*
G75*
G02*
X180100000Y-164737500I0J237500D01*
G01*
G37*
%TD*%
%TO.C,R34*%
G36*
G01*
X193075000Y-162262500D02*
X193075000Y-162737500D01*
G75*
G02*
X192837500Y-162975000I-237500J0D01*
G01*
X192337500Y-162975000D01*
G75*
G02*
X192100000Y-162737500I0J237500D01*
G01*
X192100000Y-162262500D01*
G75*
G02*
X192337500Y-162025000I237500J0D01*
G01*
X192837500Y-162025000D01*
G75*
G02*
X193075000Y-162262500I0J-237500D01*
G01*
G37*
G36*
G01*
X194900000Y-162262500D02*
X194900000Y-162737500D01*
G75*
G02*
X194662500Y-162975000I-237500J0D01*
G01*
X194162500Y-162975000D01*
G75*
G02*
X193925000Y-162737500I0J237500D01*
G01*
X193925000Y-162262500D01*
G75*
G02*
X194162500Y-162025000I237500J0D01*
G01*
X194662500Y-162025000D01*
G75*
G02*
X194900000Y-162262500I0J-237500D01*
G01*
G37*
%TD*%
%TO.C,R33*%
G36*
G01*
X181075000Y-162262500D02*
X181075000Y-162737500D01*
G75*
G02*
X180837500Y-162975000I-237500J0D01*
G01*
X180337500Y-162975000D01*
G75*
G02*
X180100000Y-162737500I0J237500D01*
G01*
X180100000Y-162262500D01*
G75*
G02*
X180337500Y-162025000I237500J0D01*
G01*
X180837500Y-162025000D01*
G75*
G02*
X181075000Y-162262500I0J-237500D01*
G01*
G37*
G36*
G01*
X182900000Y-162262500D02*
X182900000Y-162737500D01*
G75*
G02*
X182662500Y-162975000I-237500J0D01*
G01*
X182162500Y-162975000D01*
G75*
G02*
X181925000Y-162737500I0J237500D01*
G01*
X181925000Y-162262500D01*
G75*
G02*
X182162500Y-162025000I237500J0D01*
G01*
X182662500Y-162025000D01*
G75*
G02*
X182900000Y-162262500I0J-237500D01*
G01*
G37*
%TD*%
%TO.C,R32*%
G36*
G01*
X199762500Y-174925000D02*
X200237500Y-174925000D01*
G75*
G02*
X200475000Y-175162500I0J-237500D01*
G01*
X200475000Y-175662500D01*
G75*
G02*
X200237500Y-175900000I-237500J0D01*
G01*
X199762500Y-175900000D01*
G75*
G02*
X199525000Y-175662500I0J237500D01*
G01*
X199525000Y-175162500D01*
G75*
G02*
X199762500Y-174925000I237500J0D01*
G01*
G37*
G36*
G01*
X199762500Y-173100000D02*
X200237500Y-173100000D01*
G75*
G02*
X200475000Y-173337500I0J-237500D01*
G01*
X200475000Y-173837500D01*
G75*
G02*
X200237500Y-174075000I-237500J0D01*
G01*
X199762500Y-174075000D01*
G75*
G02*
X199525000Y-173837500I0J237500D01*
G01*
X199525000Y-173337500D01*
G75*
G02*
X199762500Y-173100000I237500J0D01*
G01*
G37*
%TD*%
%TO.C,R31*%
G36*
G01*
X157425000Y-164737500D02*
X157425000Y-164262500D01*
G75*
G02*
X157662500Y-164025000I237500J0D01*
G01*
X158162500Y-164025000D01*
G75*
G02*
X158400000Y-164262500I0J-237500D01*
G01*
X158400000Y-164737500D01*
G75*
G02*
X158162500Y-164975000I-237500J0D01*
G01*
X157662500Y-164975000D01*
G75*
G02*
X157425000Y-164737500I0J237500D01*
G01*
G37*
G36*
G01*
X155600000Y-164737500D02*
X155600000Y-164262500D01*
G75*
G02*
X155837500Y-164025000I237500J0D01*
G01*
X156337500Y-164025000D01*
G75*
G02*
X156575000Y-164262500I0J-237500D01*
G01*
X156575000Y-164737500D01*
G75*
G02*
X156337500Y-164975000I-237500J0D01*
G01*
X155837500Y-164975000D01*
G75*
G02*
X155600000Y-164737500I0J237500D01*
G01*
G37*
%TD*%
%TO.C,R30*%
G36*
G01*
X145425000Y-164737500D02*
X145425000Y-164262500D01*
G75*
G02*
X145662500Y-164025000I237500J0D01*
G01*
X146162500Y-164025000D01*
G75*
G02*
X146400000Y-164262500I0J-237500D01*
G01*
X146400000Y-164737500D01*
G75*
G02*
X146162500Y-164975000I-237500J0D01*
G01*
X145662500Y-164975000D01*
G75*
G02*
X145425000Y-164737500I0J237500D01*
G01*
G37*
G36*
G01*
X143600000Y-164737500D02*
X143600000Y-164262500D01*
G75*
G02*
X143837500Y-164025000I237500J0D01*
G01*
X144337500Y-164025000D01*
G75*
G02*
X144575000Y-164262500I0J-237500D01*
G01*
X144575000Y-164737500D01*
G75*
G02*
X144337500Y-164975000I-237500J0D01*
G01*
X143837500Y-164975000D01*
G75*
G02*
X143600000Y-164737500I0J237500D01*
G01*
G37*
%TD*%
%TO.C,R29*%
G36*
G01*
X156575000Y-162262500D02*
X156575000Y-162737500D01*
G75*
G02*
X156337500Y-162975000I-237500J0D01*
G01*
X155837500Y-162975000D01*
G75*
G02*
X155600000Y-162737500I0J237500D01*
G01*
X155600000Y-162262500D01*
G75*
G02*
X155837500Y-162025000I237500J0D01*
G01*
X156337500Y-162025000D01*
G75*
G02*
X156575000Y-162262500I0J-237500D01*
G01*
G37*
G36*
G01*
X158400000Y-162262500D02*
X158400000Y-162737500D01*
G75*
G02*
X158162500Y-162975000I-237500J0D01*
G01*
X157662500Y-162975000D01*
G75*
G02*
X157425000Y-162737500I0J237500D01*
G01*
X157425000Y-162262500D01*
G75*
G02*
X157662500Y-162025000I237500J0D01*
G01*
X158162500Y-162025000D01*
G75*
G02*
X158400000Y-162262500I0J-237500D01*
G01*
G37*
%TD*%
%TO.C,R28*%
G36*
G01*
X144575000Y-162262500D02*
X144575000Y-162737500D01*
G75*
G02*
X144337500Y-162975000I-237500J0D01*
G01*
X143837500Y-162975000D01*
G75*
G02*
X143600000Y-162737500I0J237500D01*
G01*
X143600000Y-162262500D01*
G75*
G02*
X143837500Y-162025000I237500J0D01*
G01*
X144337500Y-162025000D01*
G75*
G02*
X144575000Y-162262500I0J-237500D01*
G01*
G37*
G36*
G01*
X146400000Y-162262500D02*
X146400000Y-162737500D01*
G75*
G02*
X146162500Y-162975000I-237500J0D01*
G01*
X145662500Y-162975000D01*
G75*
G02*
X145425000Y-162737500I0J237500D01*
G01*
X145425000Y-162262500D01*
G75*
G02*
X145662500Y-162025000I237500J0D01*
G01*
X146162500Y-162025000D01*
G75*
G02*
X146400000Y-162262500I0J-237500D01*
G01*
G37*
%TD*%
%TO.C,R27*%
G36*
G01*
X197737500Y-174075000D02*
X197262500Y-174075000D01*
G75*
G02*
X197025000Y-173837500I0J237500D01*
G01*
X197025000Y-173337500D01*
G75*
G02*
X197262500Y-173100000I237500J0D01*
G01*
X197737500Y-173100000D01*
G75*
G02*
X197975000Y-173337500I0J-237500D01*
G01*
X197975000Y-173837500D01*
G75*
G02*
X197737500Y-174075000I-237500J0D01*
G01*
G37*
G36*
G01*
X197737500Y-175900000D02*
X197262500Y-175900000D01*
G75*
G02*
X197025000Y-175662500I0J237500D01*
G01*
X197025000Y-175162500D01*
G75*
G02*
X197262500Y-174925000I237500J0D01*
G01*
X197737500Y-174925000D01*
G75*
G02*
X197975000Y-175162500I0J-237500D01*
G01*
X197975000Y-175662500D01*
G75*
G02*
X197737500Y-175900000I-237500J0D01*
G01*
G37*
%TD*%
%TO.C,R26*%
G36*
G01*
X163262500Y-174925000D02*
X163737500Y-174925000D01*
G75*
G02*
X163975000Y-175162500I0J-237500D01*
G01*
X163975000Y-175662500D01*
G75*
G02*
X163737500Y-175900000I-237500J0D01*
G01*
X163262500Y-175900000D01*
G75*
G02*
X163025000Y-175662500I0J237500D01*
G01*
X163025000Y-175162500D01*
G75*
G02*
X163262500Y-174925000I237500J0D01*
G01*
G37*
G36*
G01*
X163262500Y-173100000D02*
X163737500Y-173100000D01*
G75*
G02*
X163975000Y-173337500I0J-237500D01*
G01*
X163975000Y-173837500D01*
G75*
G02*
X163737500Y-174075000I-237500J0D01*
G01*
X163262500Y-174075000D01*
G75*
G02*
X163025000Y-173837500I0J237500D01*
G01*
X163025000Y-173337500D01*
G75*
G02*
X163262500Y-173100000I237500J0D01*
G01*
G37*
%TD*%
%TO.C,R25*%
G36*
G01*
X161237500Y-174075000D02*
X160762500Y-174075000D01*
G75*
G02*
X160525000Y-173837500I0J237500D01*
G01*
X160525000Y-173337500D01*
G75*
G02*
X160762500Y-173100000I237500J0D01*
G01*
X161237500Y-173100000D01*
G75*
G02*
X161475000Y-173337500I0J-237500D01*
G01*
X161475000Y-173837500D01*
G75*
G02*
X161237500Y-174075000I-237500J0D01*
G01*
G37*
G36*
G01*
X161237500Y-175900000D02*
X160762500Y-175900000D01*
G75*
G02*
X160525000Y-175662500I0J237500D01*
G01*
X160525000Y-175162500D01*
G75*
G02*
X160762500Y-174925000I237500J0D01*
G01*
X161237500Y-174925000D01*
G75*
G02*
X161475000Y-175162500I0J-237500D01*
G01*
X161475000Y-175662500D01*
G75*
G02*
X161237500Y-175900000I-237500J0D01*
G01*
G37*
%TD*%
%TO.C,R19*%
G36*
G01*
X120925000Y-164737500D02*
X120925000Y-164262500D01*
G75*
G02*
X121162500Y-164025000I237500J0D01*
G01*
X121662500Y-164025000D01*
G75*
G02*
X121900000Y-164262500I0J-237500D01*
G01*
X121900000Y-164737500D01*
G75*
G02*
X121662500Y-164975000I-237500J0D01*
G01*
X121162500Y-164975000D01*
G75*
G02*
X120925000Y-164737500I0J237500D01*
G01*
G37*
G36*
G01*
X119100000Y-164737500D02*
X119100000Y-164262500D01*
G75*
G02*
X119337500Y-164025000I237500J0D01*
G01*
X119837500Y-164025000D01*
G75*
G02*
X120075000Y-164262500I0J-237500D01*
G01*
X120075000Y-164737500D01*
G75*
G02*
X119837500Y-164975000I-237500J0D01*
G01*
X119337500Y-164975000D01*
G75*
G02*
X119100000Y-164737500I0J237500D01*
G01*
G37*
%TD*%
%TO.C,R18*%
G36*
G01*
X108925000Y-164737500D02*
X108925000Y-164262500D01*
G75*
G02*
X109162500Y-164025000I237500J0D01*
G01*
X109662500Y-164025000D01*
G75*
G02*
X109900000Y-164262500I0J-237500D01*
G01*
X109900000Y-164737500D01*
G75*
G02*
X109662500Y-164975000I-237500J0D01*
G01*
X109162500Y-164975000D01*
G75*
G02*
X108925000Y-164737500I0J237500D01*
G01*
G37*
G36*
G01*
X107100000Y-164737500D02*
X107100000Y-164262500D01*
G75*
G02*
X107337500Y-164025000I237500J0D01*
G01*
X107837500Y-164025000D01*
G75*
G02*
X108075000Y-164262500I0J-237500D01*
G01*
X108075000Y-164737500D01*
G75*
G02*
X107837500Y-164975000I-237500J0D01*
G01*
X107337500Y-164975000D01*
G75*
G02*
X107100000Y-164737500I0J237500D01*
G01*
G37*
%TD*%
%TO.C,R17*%
G36*
G01*
X120075000Y-162262500D02*
X120075000Y-162737500D01*
G75*
G02*
X119837500Y-162975000I-237500J0D01*
G01*
X119337500Y-162975000D01*
G75*
G02*
X119100000Y-162737500I0J237500D01*
G01*
X119100000Y-162262500D01*
G75*
G02*
X119337500Y-162025000I237500J0D01*
G01*
X119837500Y-162025000D01*
G75*
G02*
X120075000Y-162262500I0J-237500D01*
G01*
G37*
G36*
G01*
X121900000Y-162262500D02*
X121900000Y-162737500D01*
G75*
G02*
X121662500Y-162975000I-237500J0D01*
G01*
X121162500Y-162975000D01*
G75*
G02*
X120925000Y-162737500I0J237500D01*
G01*
X120925000Y-162262500D01*
G75*
G02*
X121162500Y-162025000I237500J0D01*
G01*
X121662500Y-162025000D01*
G75*
G02*
X121900000Y-162262500I0J-237500D01*
G01*
G37*
%TD*%
%TO.C,R16*%
G36*
G01*
X108075000Y-162262500D02*
X108075000Y-162737500D01*
G75*
G02*
X107837500Y-162975000I-237500J0D01*
G01*
X107337500Y-162975000D01*
G75*
G02*
X107100000Y-162737500I0J237500D01*
G01*
X107100000Y-162262500D01*
G75*
G02*
X107337500Y-162025000I237500J0D01*
G01*
X107837500Y-162025000D01*
G75*
G02*
X108075000Y-162262500I0J-237500D01*
G01*
G37*
G36*
G01*
X109900000Y-162262500D02*
X109900000Y-162737500D01*
G75*
G02*
X109662500Y-162975000I-237500J0D01*
G01*
X109162500Y-162975000D01*
G75*
G02*
X108925000Y-162737500I0J237500D01*
G01*
X108925000Y-162262500D01*
G75*
G02*
X109162500Y-162025000I237500J0D01*
G01*
X109662500Y-162025000D01*
G75*
G02*
X109900000Y-162262500I0J-237500D01*
G01*
G37*
%TD*%
%TO.C,R15*%
G36*
G01*
X127237500Y-174075000D02*
X126762500Y-174075000D01*
G75*
G02*
X126525000Y-173837500I0J237500D01*
G01*
X126525000Y-173337500D01*
G75*
G02*
X126762500Y-173100000I237500J0D01*
G01*
X127237500Y-173100000D01*
G75*
G02*
X127475000Y-173337500I0J-237500D01*
G01*
X127475000Y-173837500D01*
G75*
G02*
X127237500Y-174075000I-237500J0D01*
G01*
G37*
G36*
G01*
X127237500Y-175900000D02*
X126762500Y-175900000D01*
G75*
G02*
X126525000Y-175662500I0J237500D01*
G01*
X126525000Y-175162500D01*
G75*
G02*
X126762500Y-174925000I237500J0D01*
G01*
X127237500Y-174925000D01*
G75*
G02*
X127475000Y-175162500I0J-237500D01*
G01*
X127475000Y-175662500D01*
G75*
G02*
X127237500Y-175900000I-237500J0D01*
G01*
G37*
%TD*%
%TO.C,R14*%
G36*
G01*
X124737500Y-174075000D02*
X124262500Y-174075000D01*
G75*
G02*
X124025000Y-173837500I0J237500D01*
G01*
X124025000Y-173337500D01*
G75*
G02*
X124262500Y-173100000I237500J0D01*
G01*
X124737500Y-173100000D01*
G75*
G02*
X124975000Y-173337500I0J-237500D01*
G01*
X124975000Y-173837500D01*
G75*
G02*
X124737500Y-174075000I-237500J0D01*
G01*
G37*
G36*
G01*
X124737500Y-175900000D02*
X124262500Y-175900000D01*
G75*
G02*
X124025000Y-175662500I0J237500D01*
G01*
X124025000Y-175162500D01*
G75*
G02*
X124262500Y-174925000I237500J0D01*
G01*
X124737500Y-174925000D01*
G75*
G02*
X124975000Y-175162500I0J-237500D01*
G01*
X124975000Y-175662500D01*
G75*
G02*
X124737500Y-175900000I-237500J0D01*
G01*
G37*
%TD*%
%TO.C,R13*%
G36*
G01*
X90737500Y-174075000D02*
X90262500Y-174075000D01*
G75*
G02*
X90025000Y-173837500I0J237500D01*
G01*
X90025000Y-173337500D01*
G75*
G02*
X90262500Y-173100000I237500J0D01*
G01*
X90737500Y-173100000D01*
G75*
G02*
X90975000Y-173337500I0J-237500D01*
G01*
X90975000Y-173837500D01*
G75*
G02*
X90737500Y-174075000I-237500J0D01*
G01*
G37*
G36*
G01*
X90737500Y-175900000D02*
X90262500Y-175900000D01*
G75*
G02*
X90025000Y-175662500I0J237500D01*
G01*
X90025000Y-175162500D01*
G75*
G02*
X90262500Y-174925000I237500J0D01*
G01*
X90737500Y-174925000D01*
G75*
G02*
X90975000Y-175162500I0J-237500D01*
G01*
X90975000Y-175662500D01*
G75*
G02*
X90737500Y-175900000I-237500J0D01*
G01*
G37*
%TD*%
%TO.C,R12*%
G36*
G01*
X84425000Y-164737500D02*
X84425000Y-164262500D01*
G75*
G02*
X84662500Y-164025000I237500J0D01*
G01*
X85162500Y-164025000D01*
G75*
G02*
X85400000Y-164262500I0J-237500D01*
G01*
X85400000Y-164737500D01*
G75*
G02*
X85162500Y-164975000I-237500J0D01*
G01*
X84662500Y-164975000D01*
G75*
G02*
X84425000Y-164737500I0J237500D01*
G01*
G37*
G36*
G01*
X82600000Y-164737500D02*
X82600000Y-164262500D01*
G75*
G02*
X82837500Y-164025000I237500J0D01*
G01*
X83337500Y-164025000D01*
G75*
G02*
X83575000Y-164262500I0J-237500D01*
G01*
X83575000Y-164737500D01*
G75*
G02*
X83337500Y-164975000I-237500J0D01*
G01*
X82837500Y-164975000D01*
G75*
G02*
X82600000Y-164737500I0J237500D01*
G01*
G37*
%TD*%
%TO.C,R9*%
G36*
G01*
X160062500Y-126425000D02*
X160537500Y-126425000D01*
G75*
G02*
X160775000Y-126662500I0J-237500D01*
G01*
X160775000Y-127162500D01*
G75*
G02*
X160537500Y-127400000I-237500J0D01*
G01*
X160062500Y-127400000D01*
G75*
G02*
X159825000Y-127162500I0J237500D01*
G01*
X159825000Y-126662500D01*
G75*
G02*
X160062500Y-126425000I237500J0D01*
G01*
G37*
G36*
G01*
X160062500Y-124600000D02*
X160537500Y-124600000D01*
G75*
G02*
X160775000Y-124837500I0J-237500D01*
G01*
X160775000Y-125337500D01*
G75*
G02*
X160537500Y-125575000I-237500J0D01*
G01*
X160062500Y-125575000D01*
G75*
G02*
X159825000Y-125337500I0J237500D01*
G01*
X159825000Y-124837500D01*
G75*
G02*
X160062500Y-124600000I237500J0D01*
G01*
G37*
%TD*%
%TO.C,R8*%
G36*
G01*
X72425000Y-164737500D02*
X72425000Y-164262500D01*
G75*
G02*
X72662500Y-164025000I237500J0D01*
G01*
X73162500Y-164025000D01*
G75*
G02*
X73400000Y-164262500I0J-237500D01*
G01*
X73400000Y-164737500D01*
G75*
G02*
X73162500Y-164975000I-237500J0D01*
G01*
X72662500Y-164975000D01*
G75*
G02*
X72425000Y-164737500I0J237500D01*
G01*
G37*
G36*
G01*
X70600000Y-164737500D02*
X70600000Y-164262500D01*
G75*
G02*
X70837500Y-164025000I237500J0D01*
G01*
X71337500Y-164025000D01*
G75*
G02*
X71575000Y-164262500I0J-237500D01*
G01*
X71575000Y-164737500D01*
G75*
G02*
X71337500Y-164975000I-237500J0D01*
G01*
X70837500Y-164975000D01*
G75*
G02*
X70600000Y-164737500I0J237500D01*
G01*
G37*
%TD*%
%TO.C,R7*%
G36*
G01*
X83575000Y-162262500D02*
X83575000Y-162737500D01*
G75*
G02*
X83337500Y-162975000I-237500J0D01*
G01*
X82837500Y-162975000D01*
G75*
G02*
X82600000Y-162737500I0J237500D01*
G01*
X82600000Y-162262500D01*
G75*
G02*
X82837500Y-162025000I237500J0D01*
G01*
X83337500Y-162025000D01*
G75*
G02*
X83575000Y-162262500I0J-237500D01*
G01*
G37*
G36*
G01*
X85400000Y-162262500D02*
X85400000Y-162737500D01*
G75*
G02*
X85162500Y-162975000I-237500J0D01*
G01*
X84662500Y-162975000D01*
G75*
G02*
X84425000Y-162737500I0J237500D01*
G01*
X84425000Y-162262500D01*
G75*
G02*
X84662500Y-162025000I237500J0D01*
G01*
X85162500Y-162025000D01*
G75*
G02*
X85400000Y-162262500I0J-237500D01*
G01*
G37*
%TD*%
%TO.C,R6*%
G36*
G01*
X71575000Y-162262500D02*
X71575000Y-162737500D01*
G75*
G02*
X71337500Y-162975000I-237500J0D01*
G01*
X70837500Y-162975000D01*
G75*
G02*
X70600000Y-162737500I0J237500D01*
G01*
X70600000Y-162262500D01*
G75*
G02*
X70837500Y-162025000I237500J0D01*
G01*
X71337500Y-162025000D01*
G75*
G02*
X71575000Y-162262500I0J-237500D01*
G01*
G37*
G36*
G01*
X73400000Y-162262500D02*
X73400000Y-162737500D01*
G75*
G02*
X73162500Y-162975000I-237500J0D01*
G01*
X72662500Y-162975000D01*
G75*
G02*
X72425000Y-162737500I0J237500D01*
G01*
X72425000Y-162262500D01*
G75*
G02*
X72662500Y-162025000I237500J0D01*
G01*
X73162500Y-162025000D01*
G75*
G02*
X73400000Y-162262500I0J-237500D01*
G01*
G37*
%TD*%
%TO.C,R5*%
G36*
G01*
X88237500Y-174075000D02*
X87762500Y-174075000D01*
G75*
G02*
X87525000Y-173837500I0J237500D01*
G01*
X87525000Y-173337500D01*
G75*
G02*
X87762500Y-173100000I237500J0D01*
G01*
X88237500Y-173100000D01*
G75*
G02*
X88475000Y-173337500I0J-237500D01*
G01*
X88475000Y-173837500D01*
G75*
G02*
X88237500Y-174075000I-237500J0D01*
G01*
G37*
G36*
G01*
X88237500Y-175900000D02*
X87762500Y-175900000D01*
G75*
G02*
X87525000Y-175662500I0J237500D01*
G01*
X87525000Y-175162500D01*
G75*
G02*
X87762500Y-174925000I237500J0D01*
G01*
X88237500Y-174925000D01*
G75*
G02*
X88475000Y-175162500I0J-237500D01*
G01*
X88475000Y-175662500D01*
G75*
G02*
X88237500Y-175900000I-237500J0D01*
G01*
G37*
%TD*%
%TO.C,R4*%
G36*
G01*
X88237500Y-105575000D02*
X87762500Y-105575000D01*
G75*
G02*
X87525000Y-105337500I0J237500D01*
G01*
X87525000Y-104837500D01*
G75*
G02*
X87762500Y-104600000I237500J0D01*
G01*
X88237500Y-104600000D01*
G75*
G02*
X88475000Y-104837500I0J-237500D01*
G01*
X88475000Y-105337500D01*
G75*
G02*
X88237500Y-105575000I-237500J0D01*
G01*
G37*
G36*
G01*
X88237500Y-107400000D02*
X87762500Y-107400000D01*
G75*
G02*
X87525000Y-107162500I0J237500D01*
G01*
X87525000Y-106662500D01*
G75*
G02*
X87762500Y-106425000I237500J0D01*
G01*
X88237500Y-106425000D01*
G75*
G02*
X88475000Y-106662500I0J-237500D01*
G01*
X88475000Y-107162500D01*
G75*
G02*
X88237500Y-107400000I-237500J0D01*
G01*
G37*
%TD*%
%TO.C,R3*%
G36*
G01*
X119237500Y-110575000D02*
X118762500Y-110575000D01*
G75*
G02*
X118525000Y-110337500I0J237500D01*
G01*
X118525000Y-109837500D01*
G75*
G02*
X118762500Y-109600000I237500J0D01*
G01*
X119237500Y-109600000D01*
G75*
G02*
X119475000Y-109837500I0J-237500D01*
G01*
X119475000Y-110337500D01*
G75*
G02*
X119237500Y-110575000I-237500J0D01*
G01*
G37*
G36*
G01*
X119237500Y-112400000D02*
X118762500Y-112400000D01*
G75*
G02*
X118525000Y-112162500I0J237500D01*
G01*
X118525000Y-111662500D01*
G75*
G02*
X118762500Y-111425000I237500J0D01*
G01*
X119237500Y-111425000D01*
G75*
G02*
X119475000Y-111662500I0J-237500D01*
G01*
X119475000Y-112162500D01*
G75*
G02*
X119237500Y-112400000I-237500J0D01*
G01*
G37*
%TD*%
%TO.C,R2*%
G36*
G01*
X160237500Y-110575000D02*
X159762500Y-110575000D01*
G75*
G02*
X159525000Y-110337500I0J237500D01*
G01*
X159525000Y-109837500D01*
G75*
G02*
X159762500Y-109600000I237500J0D01*
G01*
X160237500Y-109600000D01*
G75*
G02*
X160475000Y-109837500I0J-237500D01*
G01*
X160475000Y-110337500D01*
G75*
G02*
X160237500Y-110575000I-237500J0D01*
G01*
G37*
G36*
G01*
X160237500Y-112400000D02*
X159762500Y-112400000D01*
G75*
G02*
X159525000Y-112162500I0J237500D01*
G01*
X159525000Y-111662500D01*
G75*
G02*
X159762500Y-111425000I237500J0D01*
G01*
X160237500Y-111425000D01*
G75*
G02*
X160475000Y-111662500I0J-237500D01*
G01*
X160475000Y-112162500D01*
G75*
G02*
X160237500Y-112400000I-237500J0D01*
G01*
G37*
%TD*%
%TO.C,R1*%
G36*
G01*
X191237500Y-105575000D02*
X190762500Y-105575000D01*
G75*
G02*
X190525000Y-105337500I0J237500D01*
G01*
X190525000Y-104837500D01*
G75*
G02*
X190762500Y-104600000I237500J0D01*
G01*
X191237500Y-104600000D01*
G75*
G02*
X191475000Y-104837500I0J-237500D01*
G01*
X191475000Y-105337500D01*
G75*
G02*
X191237500Y-105575000I-237500J0D01*
G01*
G37*
G36*
G01*
X191237500Y-107400000D02*
X190762500Y-107400000D01*
G75*
G02*
X190525000Y-107162500I0J237500D01*
G01*
X190525000Y-106662500D01*
G75*
G02*
X190762500Y-106425000I237500J0D01*
G01*
X191237500Y-106425000D01*
G75*
G02*
X191475000Y-106662500I0J-237500D01*
G01*
X191475000Y-107162500D01*
G75*
G02*
X191237500Y-107400000I-237500J0D01*
G01*
G37*
%TD*%
D30*
%TO.C,Q6*%
X135000000Y-76500000D03*
X135950000Y-79500000D03*
X134050000Y-79500000D03*
%TD*%
%TO.C,Q5*%
X135000000Y-83500000D03*
X135950000Y-86500000D03*
X134050000Y-86500000D03*
%TD*%
D31*
%TO.C,Q4*%
X82500000Y-106000000D03*
X85500000Y-105050000D03*
X85500000Y-106950000D03*
%TD*%
%TO.C,Q3*%
X113500000Y-111000000D03*
X116500000Y-110050000D03*
X116500000Y-111950000D03*
%TD*%
%TO.C,Q2*%
X154500000Y-111000000D03*
X157500000Y-110050000D03*
X157500000Y-111950000D03*
%TD*%
%TO.C,Q1*%
X185500000Y-106000000D03*
X188500000Y-105050000D03*
X188500000Y-106950000D03*
%TD*%
D32*
%TO.C,PS1*%
X80000000Y-128000000D03*
X80000000Y-148320000D03*
X125720000Y-148320000D03*
X125720000Y-138160000D03*
X125720000Y-128000000D03*
%TD*%
D33*
%TO.C,J6*%
X145500000Y-70000000D03*
X143000000Y-70000000D03*
G36*
G01*
X139650000Y-70725000D02*
X139650000Y-69275000D01*
G75*
G02*
X139900000Y-69025000I250000J0D01*
G01*
X141100000Y-69025000D01*
G75*
G02*
X141350000Y-69275000I0J-250000D01*
G01*
X141350000Y-70725000D01*
G75*
G02*
X141100000Y-70975000I-250000J0D01*
G01*
X139900000Y-70975000D01*
G75*
G02*
X139650000Y-70725000I0J250000D01*
G01*
G37*
%TD*%
D30*
%TO.C,D9*%
X135000000Y-70000000D03*
X135950000Y-73000000D03*
X134050000Y-73000000D03*
%TD*%
D31*
%TO.C,D8*%
X75500000Y-106000000D03*
X78500000Y-105050000D03*
X78500000Y-106950000D03*
%TD*%
%TO.C,D6*%
X106500000Y-111000000D03*
X109500000Y-110050000D03*
X109500000Y-111950000D03*
%TD*%
%TO.C,D4*%
X147500000Y-111000000D03*
X150500000Y-110050000D03*
X150500000Y-111950000D03*
%TD*%
%TO.C,D2*%
X178500000Y-106000000D03*
X181500000Y-105050000D03*
X181500000Y-106950000D03*
%TD*%
%TO.C,C19*%
G36*
G01*
X127062500Y-97025000D02*
X127537500Y-97025000D01*
G75*
G02*
X127775000Y-97262500I0J-237500D01*
G01*
X127775000Y-97862500D01*
G75*
G02*
X127537500Y-98100000I-237500J0D01*
G01*
X127062500Y-98100000D01*
G75*
G02*
X126825000Y-97862500I0J237500D01*
G01*
X126825000Y-97262500D01*
G75*
G02*
X127062500Y-97025000I237500J0D01*
G01*
G37*
G36*
G01*
X127062500Y-95300000D02*
X127537500Y-95300000D01*
G75*
G02*
X127775000Y-95537500I0J-237500D01*
G01*
X127775000Y-96137500D01*
G75*
G02*
X127537500Y-96375000I-237500J0D01*
G01*
X127062500Y-96375000D01*
G75*
G02*
X126825000Y-96137500I0J237500D01*
G01*
X126825000Y-95537500D01*
G75*
G02*
X127062500Y-95300000I237500J0D01*
G01*
G37*
%TD*%
%TO.C,C16*%
G36*
G01*
X193175000Y-160262500D02*
X193175000Y-160737500D01*
G75*
G02*
X192937500Y-160975000I-237500J0D01*
G01*
X192337500Y-160975000D01*
G75*
G02*
X192100000Y-160737500I0J237500D01*
G01*
X192100000Y-160262500D01*
G75*
G02*
X192337500Y-160025000I237500J0D01*
G01*
X192937500Y-160025000D01*
G75*
G02*
X193175000Y-160262500I0J-237500D01*
G01*
G37*
G36*
G01*
X194900000Y-160262500D02*
X194900000Y-160737500D01*
G75*
G02*
X194662500Y-160975000I-237500J0D01*
G01*
X194062500Y-160975000D01*
G75*
G02*
X193825000Y-160737500I0J237500D01*
G01*
X193825000Y-160262500D01*
G75*
G02*
X194062500Y-160025000I237500J0D01*
G01*
X194662500Y-160025000D01*
G75*
G02*
X194900000Y-160262500I0J-237500D01*
G01*
G37*
%TD*%
%TO.C,C12*%
G36*
G01*
X181175000Y-160262500D02*
X181175000Y-160737500D01*
G75*
G02*
X180937500Y-160975000I-237500J0D01*
G01*
X180337500Y-160975000D01*
G75*
G02*
X180100000Y-160737500I0J237500D01*
G01*
X180100000Y-160262500D01*
G75*
G02*
X180337500Y-160025000I237500J0D01*
G01*
X180937500Y-160025000D01*
G75*
G02*
X181175000Y-160262500I0J-237500D01*
G01*
G37*
G36*
G01*
X182900000Y-160262500D02*
X182900000Y-160737500D01*
G75*
G02*
X182662500Y-160975000I-237500J0D01*
G01*
X182062500Y-160975000D01*
G75*
G02*
X181825000Y-160737500I0J237500D01*
G01*
X181825000Y-160262500D01*
G75*
G02*
X182062500Y-160025000I237500J0D01*
G01*
X182662500Y-160025000D01*
G75*
G02*
X182900000Y-160262500I0J-237500D01*
G01*
G37*
%TD*%
%TO.C,C11*%
G36*
G01*
X156675000Y-160262500D02*
X156675000Y-160737500D01*
G75*
G02*
X156437500Y-160975000I-237500J0D01*
G01*
X155837500Y-160975000D01*
G75*
G02*
X155600000Y-160737500I0J237500D01*
G01*
X155600000Y-160262500D01*
G75*
G02*
X155837500Y-160025000I237500J0D01*
G01*
X156437500Y-160025000D01*
G75*
G02*
X156675000Y-160262500I0J-237500D01*
G01*
G37*
G36*
G01*
X158400000Y-160262500D02*
X158400000Y-160737500D01*
G75*
G02*
X158162500Y-160975000I-237500J0D01*
G01*
X157562500Y-160975000D01*
G75*
G02*
X157325000Y-160737500I0J237500D01*
G01*
X157325000Y-160262500D01*
G75*
G02*
X157562500Y-160025000I237500J0D01*
G01*
X158162500Y-160025000D01*
G75*
G02*
X158400000Y-160262500I0J-237500D01*
G01*
G37*
%TD*%
%TO.C,C10*%
G36*
G01*
X144675000Y-160262500D02*
X144675000Y-160737500D01*
G75*
G02*
X144437500Y-160975000I-237500J0D01*
G01*
X143837500Y-160975000D01*
G75*
G02*
X143600000Y-160737500I0J237500D01*
G01*
X143600000Y-160262500D01*
G75*
G02*
X143837500Y-160025000I237500J0D01*
G01*
X144437500Y-160025000D01*
G75*
G02*
X144675000Y-160262500I0J-237500D01*
G01*
G37*
G36*
G01*
X146400000Y-160262500D02*
X146400000Y-160737500D01*
G75*
G02*
X146162500Y-160975000I-237500J0D01*
G01*
X145562500Y-160975000D01*
G75*
G02*
X145325000Y-160737500I0J237500D01*
G01*
X145325000Y-160262500D01*
G75*
G02*
X145562500Y-160025000I237500J0D01*
G01*
X146162500Y-160025000D01*
G75*
G02*
X146400000Y-160262500I0J-237500D01*
G01*
G37*
%TD*%
%TO.C,C9*%
G36*
G01*
X120175000Y-160262500D02*
X120175000Y-160737500D01*
G75*
G02*
X119937500Y-160975000I-237500J0D01*
G01*
X119337500Y-160975000D01*
G75*
G02*
X119100000Y-160737500I0J237500D01*
G01*
X119100000Y-160262500D01*
G75*
G02*
X119337500Y-160025000I237500J0D01*
G01*
X119937500Y-160025000D01*
G75*
G02*
X120175000Y-160262500I0J-237500D01*
G01*
G37*
G36*
G01*
X121900000Y-160262500D02*
X121900000Y-160737500D01*
G75*
G02*
X121662500Y-160975000I-237500J0D01*
G01*
X121062500Y-160975000D01*
G75*
G02*
X120825000Y-160737500I0J237500D01*
G01*
X120825000Y-160262500D01*
G75*
G02*
X121062500Y-160025000I237500J0D01*
G01*
X121662500Y-160025000D01*
G75*
G02*
X121900000Y-160262500I0J-237500D01*
G01*
G37*
%TD*%
%TO.C,C7*%
G36*
G01*
X108175000Y-160262500D02*
X108175000Y-160737500D01*
G75*
G02*
X107937500Y-160975000I-237500J0D01*
G01*
X107337500Y-160975000D01*
G75*
G02*
X107100000Y-160737500I0J237500D01*
G01*
X107100000Y-160262500D01*
G75*
G02*
X107337500Y-160025000I237500J0D01*
G01*
X107937500Y-160025000D01*
G75*
G02*
X108175000Y-160262500I0J-237500D01*
G01*
G37*
G36*
G01*
X109900000Y-160262500D02*
X109900000Y-160737500D01*
G75*
G02*
X109662500Y-160975000I-237500J0D01*
G01*
X109062500Y-160975000D01*
G75*
G02*
X108825000Y-160737500I0J237500D01*
G01*
X108825000Y-160262500D01*
G75*
G02*
X109062500Y-160025000I237500J0D01*
G01*
X109662500Y-160025000D01*
G75*
G02*
X109900000Y-160262500I0J-237500D01*
G01*
G37*
%TD*%
%TO.C,C6*%
G36*
G01*
X172962500Y-160425000D02*
X173437500Y-160425000D01*
G75*
G02*
X173675000Y-160662500I0J-237500D01*
G01*
X173675000Y-161262500D01*
G75*
G02*
X173437500Y-161500000I-237500J0D01*
G01*
X172962500Y-161500000D01*
G75*
G02*
X172725000Y-161262500I0J237500D01*
G01*
X172725000Y-160662500D01*
G75*
G02*
X172962500Y-160425000I237500J0D01*
G01*
G37*
G36*
G01*
X172962500Y-158700000D02*
X173437500Y-158700000D01*
G75*
G02*
X173675000Y-158937500I0J-237500D01*
G01*
X173675000Y-159537500D01*
G75*
G02*
X173437500Y-159775000I-237500J0D01*
G01*
X172962500Y-159775000D01*
G75*
G02*
X172725000Y-159537500I0J237500D01*
G01*
X172725000Y-158937500D01*
G75*
G02*
X172962500Y-158700000I237500J0D01*
G01*
G37*
%TD*%
%TO.C,C5*%
G36*
G01*
X147237500Y-132675000D02*
X146762500Y-132675000D01*
G75*
G02*
X146525000Y-132437500I0J237500D01*
G01*
X146525000Y-131837500D01*
G75*
G02*
X146762500Y-131600000I237500J0D01*
G01*
X147237500Y-131600000D01*
G75*
G02*
X147475000Y-131837500I0J-237500D01*
G01*
X147475000Y-132437500D01*
G75*
G02*
X147237500Y-132675000I-237500J0D01*
G01*
G37*
G36*
G01*
X147237500Y-134400000D02*
X146762500Y-134400000D01*
G75*
G02*
X146525000Y-134162500I0J237500D01*
G01*
X146525000Y-133562500D01*
G75*
G02*
X146762500Y-133325000I237500J0D01*
G01*
X147237500Y-133325000D01*
G75*
G02*
X147475000Y-133562500I0J-237500D01*
G01*
X147475000Y-134162500D01*
G75*
G02*
X147237500Y-134400000I-237500J0D01*
G01*
G37*
%TD*%
%TO.C,C3*%
G36*
G01*
X134762500Y-135325000D02*
X135237500Y-135325000D01*
G75*
G02*
X135475000Y-135562500I0J-237500D01*
G01*
X135475000Y-136162500D01*
G75*
G02*
X135237500Y-136400000I-237500J0D01*
G01*
X134762500Y-136400000D01*
G75*
G02*
X134525000Y-136162500I0J237500D01*
G01*
X134525000Y-135562500D01*
G75*
G02*
X134762500Y-135325000I237500J0D01*
G01*
G37*
G36*
G01*
X134762500Y-133600000D02*
X135237500Y-133600000D01*
G75*
G02*
X135475000Y-133837500I0J-237500D01*
G01*
X135475000Y-134437500D01*
G75*
G02*
X135237500Y-134675000I-237500J0D01*
G01*
X134762500Y-134675000D01*
G75*
G02*
X134525000Y-134437500I0J237500D01*
G01*
X134525000Y-133837500D01*
G75*
G02*
X134762500Y-133600000I237500J0D01*
G01*
G37*
%TD*%
%TO.C,C2*%
G36*
G01*
X83675000Y-160262500D02*
X83675000Y-160737500D01*
G75*
G02*
X83437500Y-160975000I-237500J0D01*
G01*
X82837500Y-160975000D01*
G75*
G02*
X82600000Y-160737500I0J237500D01*
G01*
X82600000Y-160262500D01*
G75*
G02*
X82837500Y-160025000I237500J0D01*
G01*
X83437500Y-160025000D01*
G75*
G02*
X83675000Y-160262500I0J-237500D01*
G01*
G37*
G36*
G01*
X85400000Y-160262500D02*
X85400000Y-160737500D01*
G75*
G02*
X85162500Y-160975000I-237500J0D01*
G01*
X84562500Y-160975000D01*
G75*
G02*
X84325000Y-160737500I0J237500D01*
G01*
X84325000Y-160262500D01*
G75*
G02*
X84562500Y-160025000I237500J0D01*
G01*
X85162500Y-160025000D01*
G75*
G02*
X85400000Y-160262500I0J-237500D01*
G01*
G37*
%TD*%
%TO.C,C1*%
G36*
G01*
X71675000Y-160262500D02*
X71675000Y-160737500D01*
G75*
G02*
X71437500Y-160975000I-237500J0D01*
G01*
X70837500Y-160975000D01*
G75*
G02*
X70600000Y-160737500I0J237500D01*
G01*
X70600000Y-160262500D01*
G75*
G02*
X70837500Y-160025000I237500J0D01*
G01*
X71437500Y-160025000D01*
G75*
G02*
X71675000Y-160262500I0J-237500D01*
G01*
G37*
G36*
G01*
X73400000Y-160262500D02*
X73400000Y-160737500D01*
G75*
G02*
X73162500Y-160975000I-237500J0D01*
G01*
X72562500Y-160975000D01*
G75*
G02*
X72325000Y-160737500I0J237500D01*
G01*
X72325000Y-160262500D01*
G75*
G02*
X72562500Y-160025000I237500J0D01*
G01*
X73162500Y-160025000D01*
G75*
G02*
X73400000Y-160262500I0J-237500D01*
G01*
G37*
%TD*%
D34*
%TO.C,H4*%
X212000000Y-171000000D03*
%TD*%
%TO.C,H3*%
X65000000Y-153000000D03*
%TD*%
%TO.C,R24*%
G36*
G01*
X158537500Y-125575000D02*
X158062500Y-125575000D01*
G75*
G02*
X157825000Y-125337500I0J237500D01*
G01*
X157825000Y-124837500D01*
G75*
G02*
X158062500Y-124600000I237500J0D01*
G01*
X158537500Y-124600000D01*
G75*
G02*
X158775000Y-124837500I0J-237500D01*
G01*
X158775000Y-125337500D01*
G75*
G02*
X158537500Y-125575000I-237500J0D01*
G01*
G37*
G36*
G01*
X158537500Y-127400000D02*
X158062500Y-127400000D01*
G75*
G02*
X157825000Y-127162500I0J237500D01*
G01*
X157825000Y-126662500D01*
G75*
G02*
X158062500Y-126425000I237500J0D01*
G01*
X158537500Y-126425000D01*
G75*
G02*
X158775000Y-126662500I0J-237500D01*
G01*
X158775000Y-127162500D01*
G75*
G02*
X158537500Y-127400000I-237500J0D01*
G01*
G37*
%TD*%
%TO.C,R23*%
G36*
G01*
X164262500Y-145425000D02*
X164737500Y-145425000D01*
G75*
G02*
X164975000Y-145662500I0J-237500D01*
G01*
X164975000Y-146162500D01*
G75*
G02*
X164737500Y-146400000I-237500J0D01*
G01*
X164262500Y-146400000D01*
G75*
G02*
X164025000Y-146162500I0J237500D01*
G01*
X164025000Y-145662500D01*
G75*
G02*
X164262500Y-145425000I237500J0D01*
G01*
G37*
G36*
G01*
X164262500Y-143600000D02*
X164737500Y-143600000D01*
G75*
G02*
X164975000Y-143837500I0J-237500D01*
G01*
X164975000Y-144337500D01*
G75*
G02*
X164737500Y-144575000I-237500J0D01*
G01*
X164262500Y-144575000D01*
G75*
G02*
X164025000Y-144337500I0J237500D01*
G01*
X164025000Y-143837500D01*
G75*
G02*
X164262500Y-143600000I237500J0D01*
G01*
G37*
%TD*%
%TO.C,R22*%
G36*
G01*
X165762500Y-145425000D02*
X166237500Y-145425000D01*
G75*
G02*
X166475000Y-145662500I0J-237500D01*
G01*
X166475000Y-146162500D01*
G75*
G02*
X166237500Y-146400000I-237500J0D01*
G01*
X165762500Y-146400000D01*
G75*
G02*
X165525000Y-146162500I0J237500D01*
G01*
X165525000Y-145662500D01*
G75*
G02*
X165762500Y-145425000I237500J0D01*
G01*
G37*
G36*
G01*
X165762500Y-143600000D02*
X166237500Y-143600000D01*
G75*
G02*
X166475000Y-143837500I0J-237500D01*
G01*
X166475000Y-144337500D01*
G75*
G02*
X166237500Y-144575000I-237500J0D01*
G01*
X165762500Y-144575000D01*
G75*
G02*
X165525000Y-144337500I0J237500D01*
G01*
X165525000Y-143837500D01*
G75*
G02*
X165762500Y-143600000I237500J0D01*
G01*
G37*
%TD*%
%TO.C,R21*%
G36*
G01*
X172425000Y-139137500D02*
X172425000Y-138662500D01*
G75*
G02*
X172662500Y-138425000I237500J0D01*
G01*
X173162500Y-138425000D01*
G75*
G02*
X173400000Y-138662500I0J-237500D01*
G01*
X173400000Y-139137500D01*
G75*
G02*
X173162500Y-139375000I-237500J0D01*
G01*
X172662500Y-139375000D01*
G75*
G02*
X172425000Y-139137500I0J237500D01*
G01*
G37*
G36*
G01*
X170600000Y-139137500D02*
X170600000Y-138662500D01*
G75*
G02*
X170837500Y-138425000I237500J0D01*
G01*
X171337500Y-138425000D01*
G75*
G02*
X171575000Y-138662500I0J-237500D01*
G01*
X171575000Y-139137500D01*
G75*
G02*
X171337500Y-139375000I-237500J0D01*
G01*
X170837500Y-139375000D01*
G75*
G02*
X170600000Y-139137500I0J237500D01*
G01*
G37*
%TD*%
%TO.C,R20*%
G36*
G01*
X172425000Y-137637500D02*
X172425000Y-137162500D01*
G75*
G02*
X172662500Y-136925000I237500J0D01*
G01*
X173162500Y-136925000D01*
G75*
G02*
X173400000Y-137162500I0J-237500D01*
G01*
X173400000Y-137637500D01*
G75*
G02*
X173162500Y-137875000I-237500J0D01*
G01*
X172662500Y-137875000D01*
G75*
G02*
X172425000Y-137637500I0J237500D01*
G01*
G37*
G36*
G01*
X170600000Y-137637500D02*
X170600000Y-137162500D01*
G75*
G02*
X170837500Y-136925000I237500J0D01*
G01*
X171337500Y-136925000D01*
G75*
G02*
X171575000Y-137162500I0J-237500D01*
G01*
X171575000Y-137637500D01*
G75*
G02*
X171337500Y-137875000I-237500J0D01*
G01*
X170837500Y-137875000D01*
G75*
G02*
X170600000Y-137637500I0J237500D01*
G01*
G37*
%TD*%
%TO.C,R11*%
G36*
G01*
X205975000Y-75062500D02*
X205975000Y-75537500D01*
G75*
G02*
X205737500Y-75775000I-237500J0D01*
G01*
X205237500Y-75775000D01*
G75*
G02*
X205000000Y-75537500I0J237500D01*
G01*
X205000000Y-75062500D01*
G75*
G02*
X205237500Y-74825000I237500J0D01*
G01*
X205737500Y-74825000D01*
G75*
G02*
X205975000Y-75062500I0J-237500D01*
G01*
G37*
G36*
G01*
X207800000Y-75062500D02*
X207800000Y-75537500D01*
G75*
G02*
X207562500Y-75775000I-237500J0D01*
G01*
X207062500Y-75775000D01*
G75*
G02*
X206825000Y-75537500I0J237500D01*
G01*
X206825000Y-75062500D01*
G75*
G02*
X207062500Y-74825000I237500J0D01*
G01*
X207562500Y-74825000D01*
G75*
G02*
X207800000Y-75062500I0J-237500D01*
G01*
G37*
%TD*%
%TO.C,R10*%
G36*
G01*
X206825000Y-74037500D02*
X206825000Y-73562500D01*
G75*
G02*
X207062500Y-73325000I237500J0D01*
G01*
X207562500Y-73325000D01*
G75*
G02*
X207800000Y-73562500I0J-237500D01*
G01*
X207800000Y-74037500D01*
G75*
G02*
X207562500Y-74275000I-237500J0D01*
G01*
X207062500Y-74275000D01*
G75*
G02*
X206825000Y-74037500I0J237500D01*
G01*
G37*
G36*
G01*
X205000000Y-74037500D02*
X205000000Y-73562500D01*
G75*
G02*
X205237500Y-73325000I237500J0D01*
G01*
X205737500Y-73325000D01*
G75*
G02*
X205975000Y-73562500I0J-237500D01*
G01*
X205975000Y-74037500D01*
G75*
G02*
X205737500Y-74275000I-237500J0D01*
G01*
X205237500Y-74275000D01*
G75*
G02*
X205000000Y-74037500I0J237500D01*
G01*
G37*
%TD*%
%TO.C,FB1*%
G36*
G01*
X153575000Y-139162500D02*
X153575000Y-139637500D01*
G75*
G02*
X153337500Y-139875000I-237500J0D01*
G01*
X152837500Y-139875000D01*
G75*
G02*
X152600000Y-139637500I0J237500D01*
G01*
X152600000Y-139162500D01*
G75*
G02*
X152837500Y-138925000I237500J0D01*
G01*
X153337500Y-138925000D01*
G75*
G02*
X153575000Y-139162500I0J-237500D01*
G01*
G37*
G36*
G01*
X155400000Y-139162500D02*
X155400000Y-139637500D01*
G75*
G02*
X155162500Y-139875000I-237500J0D01*
G01*
X154662500Y-139875000D01*
G75*
G02*
X154425000Y-139637500I0J237500D01*
G01*
X154425000Y-139162500D01*
G75*
G02*
X154662500Y-138925000I237500J0D01*
G01*
X155162500Y-138925000D01*
G75*
G02*
X155400000Y-139162500I0J-237500D01*
G01*
G37*
%TD*%
%TO.C,C18*%
G36*
G01*
X153675000Y-136162500D02*
X153675000Y-136637500D01*
G75*
G02*
X153437500Y-136875000I-237500J0D01*
G01*
X152837500Y-136875000D01*
G75*
G02*
X152600000Y-136637500I0J237500D01*
G01*
X152600000Y-136162500D01*
G75*
G02*
X152837500Y-135925000I237500J0D01*
G01*
X153437500Y-135925000D01*
G75*
G02*
X153675000Y-136162500I0J-237500D01*
G01*
G37*
G36*
G01*
X155400000Y-136162500D02*
X155400000Y-136637500D01*
G75*
G02*
X155162500Y-136875000I-237500J0D01*
G01*
X154562500Y-136875000D01*
G75*
G02*
X154325000Y-136637500I0J237500D01*
G01*
X154325000Y-136162500D01*
G75*
G02*
X154562500Y-135925000I237500J0D01*
G01*
X155162500Y-135925000D01*
G75*
G02*
X155400000Y-136162500I0J-237500D01*
G01*
G37*
%TD*%
%TO.C,C17*%
G36*
G01*
X153675000Y-137662500D02*
X153675000Y-138137500D01*
G75*
G02*
X153437500Y-138375000I-237500J0D01*
G01*
X152837500Y-138375000D01*
G75*
G02*
X152600000Y-138137500I0J237500D01*
G01*
X152600000Y-137662500D01*
G75*
G02*
X152837500Y-137425000I237500J0D01*
G01*
X153437500Y-137425000D01*
G75*
G02*
X153675000Y-137662500I0J-237500D01*
G01*
G37*
G36*
G01*
X155400000Y-137662500D02*
X155400000Y-138137500D01*
G75*
G02*
X155162500Y-138375000I-237500J0D01*
G01*
X154562500Y-138375000D01*
G75*
G02*
X154325000Y-138137500I0J237500D01*
G01*
X154325000Y-137662500D01*
G75*
G02*
X154562500Y-137425000I237500J0D01*
G01*
X155162500Y-137425000D01*
G75*
G02*
X155400000Y-137662500I0J-237500D01*
G01*
G37*
%TD*%
%TO.C,C15*%
G36*
G01*
X172325000Y-140637500D02*
X172325000Y-140162500D01*
G75*
G02*
X172562500Y-139925000I237500J0D01*
G01*
X173162500Y-139925000D01*
G75*
G02*
X173400000Y-140162500I0J-237500D01*
G01*
X173400000Y-140637500D01*
G75*
G02*
X173162500Y-140875000I-237500J0D01*
G01*
X172562500Y-140875000D01*
G75*
G02*
X172325000Y-140637500I0J237500D01*
G01*
G37*
G36*
G01*
X170600000Y-140637500D02*
X170600000Y-140162500D01*
G75*
G02*
X170837500Y-139925000I237500J0D01*
G01*
X171437500Y-139925000D01*
G75*
G02*
X171675000Y-140162500I0J-237500D01*
G01*
X171675000Y-140637500D01*
G75*
G02*
X171437500Y-140875000I-237500J0D01*
G01*
X170837500Y-140875000D01*
G75*
G02*
X170600000Y-140637500I0J237500D01*
G01*
G37*
%TD*%
%TO.C,C14*%
G36*
G01*
X153675000Y-132662500D02*
X153675000Y-133137500D01*
G75*
G02*
X153437500Y-133375000I-237500J0D01*
G01*
X152837500Y-133375000D01*
G75*
G02*
X152600000Y-133137500I0J237500D01*
G01*
X152600000Y-132662500D01*
G75*
G02*
X152837500Y-132425000I237500J0D01*
G01*
X153437500Y-132425000D01*
G75*
G02*
X153675000Y-132662500I0J-237500D01*
G01*
G37*
G36*
G01*
X155400000Y-132662500D02*
X155400000Y-133137500D01*
G75*
G02*
X155162500Y-133375000I-237500J0D01*
G01*
X154562500Y-133375000D01*
G75*
G02*
X154325000Y-133137500I0J237500D01*
G01*
X154325000Y-132662500D01*
G75*
G02*
X154562500Y-132425000I237500J0D01*
G01*
X155162500Y-132425000D01*
G75*
G02*
X155400000Y-132662500I0J-237500D01*
G01*
G37*
%TD*%
%TO.C,C8*%
G36*
G01*
X153675000Y-134662500D02*
X153675000Y-135137500D01*
G75*
G02*
X153437500Y-135375000I-237500J0D01*
G01*
X152837500Y-135375000D01*
G75*
G02*
X152600000Y-135137500I0J237500D01*
G01*
X152600000Y-134662500D01*
G75*
G02*
X152837500Y-134425000I237500J0D01*
G01*
X153437500Y-134425000D01*
G75*
G02*
X153675000Y-134662500I0J-237500D01*
G01*
G37*
G36*
G01*
X155400000Y-134662500D02*
X155400000Y-135137500D01*
G75*
G02*
X155162500Y-135375000I-237500J0D01*
G01*
X154562500Y-135375000D01*
G75*
G02*
X154325000Y-135137500I0J237500D01*
G01*
X154325000Y-134662500D01*
G75*
G02*
X154562500Y-134425000I237500J0D01*
G01*
X155162500Y-134425000D01*
G75*
G02*
X155400000Y-134662500I0J-237500D01*
G01*
G37*
%TD*%
%TO.C,C4*%
G36*
G01*
X199162500Y-69325000D02*
X199637500Y-69325000D01*
G75*
G02*
X199875000Y-69562500I0J-237500D01*
G01*
X199875000Y-70162500D01*
G75*
G02*
X199637500Y-70400000I-237500J0D01*
G01*
X199162500Y-70400000D01*
G75*
G02*
X198925000Y-70162500I0J237500D01*
G01*
X198925000Y-69562500D01*
G75*
G02*
X199162500Y-69325000I237500J0D01*
G01*
G37*
G36*
G01*
X199162500Y-67600000D02*
X199637500Y-67600000D01*
G75*
G02*
X199875000Y-67837500I0J-237500D01*
G01*
X199875000Y-68437500D01*
G75*
G02*
X199637500Y-68675000I-237500J0D01*
G01*
X199162500Y-68675000D01*
G75*
G02*
X198925000Y-68437500I0J237500D01*
G01*
X198925000Y-67837500D01*
G75*
G02*
X199162500Y-67600000I237500J0D01*
G01*
G37*
%TD*%
%TO.C,H2*%
X212000000Y-64000000D03*
%TD*%
%TO.C,H1*%
X65000000Y-54000000D03*
%TD*%
M02*
