M48
; DRILL file {KiCad 5.1.10-88a1d61d58~90~ubuntu20.04.1} date Mon Oct 18 00:45:18 2021
; FORMAT={-:-/ absolute / metric / decimal}
; #@! TF.CreationDate,2021-10-18T00:45:18+03:00
; #@! TF.GenerationSoftware,Kicad,Pcbnew,5.1.10-88a1d61d58~90~ubuntu20.04.1
; #@! TF.FileFunction,Plated,1,4,PTH
FMAT,2
METRIC
T1C0.400
T2C0.500
T3C0.800
T4C0.920
T5C0.950
T6C1.000
T7C1.090
T8C1.350
T9C1.600
T10C1.800
T11C1.850
T12C1.980
T13C2.060
T14C2.300
%
G90
G05
T1
X70.0Y-160.5
X70.0Y-164.5
X82.0Y-160.5
X82.0Y-164.5
X88.0Y-104.0
X106.5Y-160.5
X106.5Y-164.5
X118.5Y-160.5
X118.5Y-164.5
X119.0Y-108.9
X122.0Y-111.9
X126.1Y-95.8
X126.4Y-119.7
X127.3Y-71.1
X127.3Y-98.8
X130.3Y-94.3
X131.4Y-101.7
X131.5Y-74.0
X131.5Y-76.4
X131.5Y-86.6
X135.0Y-137.1
X136.0Y-88.2
X136.0Y-125.5
X136.0Y-127.5
X136.0Y-129.5
X137.0Y-126.5
X137.0Y-128.5
X143.0Y-160.5
X143.0Y-164.5
X145.0Y-125.5
X145.0Y-127.5
X145.0Y-129.5
X148.3Y-132.1
X151.8Y-131.0
X151.8Y-132.9
X151.8Y-134.9
X151.8Y-136.4
X155.0Y-160.5
X155.0Y-164.5
X155.6Y-125.5
X157.8Y-131.0
X158.3Y-123.8
X159.5Y-130.2
X160.0Y-108.9
X160.2Y-123.8
X162.2Y-123.8
X162.8Y-159.2
X162.8Y-163.0
X162.8Y-166.8
X163.0Y-111.9
X164.2Y-123.8
X164.5Y-147.1
X165.9Y-159.1
X166.0Y-147.1
X166.4Y-141.7
X166.7Y-163.5
X167.5Y-151.8
X167.9Y-160.9
X169.2Y-125.5
X169.2Y-152.1
X171.2Y-141.6
X171.2Y-160.45
X171.2Y-164.25
X172.2Y-165.0
X173.2Y-157.9
X173.2Y-162.2
X174.1Y-140.4
X175.2Y-138.9
X176.4Y-137.4
X179.5Y-160.5
X179.5Y-164.5
X181.3Y-125.5
X181.3Y-128.0
X181.3Y-129.3
X181.3Y-130.6
X191.0Y-103.9
X191.0Y-108.1
X191.5Y-160.5
X191.5Y-164.5
X199.4Y-71.1
X202.0Y-70.5
X202.004Y-65.504
X204.3Y-73.8
X204.3Y-75.3
T2
X136.0Y-81.4
X146.75Y-135.75
X146.75Y-137.25
X148.0Y-136.5
X149.25Y-135.75
X149.25Y-137.25
T3
X75.0Y-63.0
X82.5Y-66.1
X90.3Y-63.0
X97.8Y-66.1
X161.0Y-63.0
X168.5Y-66.1
X176.3Y-63.0
X183.8Y-66.1
T4
X195.77Y-60.3
X195.77Y-62.3
X198.27Y-60.3
X198.27Y-62.3
T5
X140.5Y-70.0
X143.0Y-70.0
X145.5Y-70.0
T6
X88.0Y-178.96
X88.0Y-181.5
X90.54Y-178.96
X90.54Y-181.5
X124.5Y-178.96
X124.5Y-181.5
X127.04Y-178.96
X127.04Y-181.5
X161.0Y-178.96
X161.0Y-181.5
X163.54Y-178.96
X163.54Y-181.5
X197.5Y-178.96
X197.5Y-181.5
X200.04Y-178.96
X200.04Y-181.5
T7
X74.0Y-96.0
X84.16Y-96.0
X105.0Y-101.0
X115.16Y-101.0
X146.0Y-101.0
X156.16Y-101.0
X177.0Y-96.0
X187.16Y-96.0
T8
X80.0Y-128.0
X80.0Y-148.32
X125.72Y-128.0
X125.72Y-138.16
X125.72Y-148.32
T9
X75.0Y-55.0
X82.62Y-55.0
X90.24Y-55.0
X97.86Y-55.0
X161.0Y-55.0
X168.62Y-55.0
X176.24Y-55.0
X183.86Y-55.0
T10
X68.0Y-132.92
X68.0Y-138.0
X68.0Y-143.08
T11
X64.46Y-181.2
X67.0Y-160.88
X67.0Y-164.69
X67.0Y-168.5
X69.54Y-181.2
X76.46Y-181.2
X79.0Y-160.88
X79.0Y-164.69
X79.0Y-168.5
X81.54Y-181.2
X100.96Y-181.2
X103.5Y-160.88
X103.5Y-164.69
X103.5Y-168.5
X106.04Y-181.2
X112.96Y-181.2
X115.5Y-160.88
X115.5Y-164.69
X115.5Y-168.5
X118.04Y-181.2
X137.46Y-181.2
X140.0Y-160.88
X140.0Y-164.69
X140.0Y-168.5
X142.54Y-181.2
X149.46Y-181.2
X152.0Y-160.88
X152.0Y-164.69
X152.0Y-168.5
X154.54Y-181.2
X173.96Y-181.2
X176.5Y-160.88
X176.5Y-164.69
X176.5Y-168.5
X179.04Y-181.2
X185.96Y-181.2
X188.5Y-160.88
X188.5Y-164.69
X188.5Y-168.5
X191.04Y-181.2
T12
X70.19Y-83.3
X101.19Y-88.3
X142.19Y-88.3
X173.19Y-83.3
T13
X87.97Y-80.76
X118.97Y-85.76
X159.97Y-85.76
X190.97Y-80.76
T14
X191.0Y-57.59
X203.04Y-57.59
T0
M30
