%TF.GenerationSoftware,KiCad,Pcbnew,5.1.10-88a1d61d58~90~ubuntu20.04.1*%
%TF.CreationDate,2021-10-18T00:45:22+03:00*%
%TF.ProjectId,PRS_relay_board,5052535f-7265-46c6-9179-5f626f617264,rev?*%
%TF.SameCoordinates,Original*%
%TF.FileFunction,Legend,Bot*%
%TF.FilePolarity,Positive*%
%FSLAX46Y46*%
G04 Gerber Fmt 4.6, Leading zero omitted, Abs format (unit mm)*
G04 Created by KiCad (PCBNEW 5.1.10-88a1d61d58~90~ubuntu20.04.1) date 2021-10-18 00:45:22*
%MOMM*%
%LPD*%
G01*
G04 APERTURE LIST*
%ADD10C,4.400000*%
%ADD11C,2.775000*%
%ADD12C,1.800000*%
%ADD13C,3.316000*%
%ADD14C,1.428000*%
%ADD15R,1.428000X1.428000*%
%ADD16C,2.400000*%
%ADD17C,3.076000*%
%ADD18C,2.970000*%
%ADD19R,1.635000X1.635000*%
%ADD20C,1.635000*%
%ADD21C,2.700000*%
%ADD22R,2.700000X2.700000*%
%ADD23C,1.500000*%
%ADD24C,2.025000*%
%ADD25O,1.700000X1.950000*%
%ADD26C,3.200000*%
G04 APERTURE END LIST*
%LPC*%
D10*
X183860000Y-73650000D02*
X190970000Y-80760000D01*
X183860000Y-55000000D02*
X183860000Y-73650000D01*
X176240000Y-80250000D02*
X173190000Y-83300000D01*
X176240000Y-55000000D02*
X176240000Y-80250000D01*
X159970000Y-85760000D02*
X168620000Y-77110000D01*
X168620000Y-55000000D02*
X168620000Y-77110000D01*
X161000000Y-69490000D02*
X142190000Y-88300000D01*
X161000000Y-55000000D02*
X161000000Y-69490000D01*
X115760000Y-85760000D02*
X118970000Y-85760000D01*
X97860000Y-67860000D02*
X115760000Y-85760000D01*
X97860000Y-55000000D02*
X97860000Y-67860000D01*
X101190000Y-82190000D02*
X101190000Y-88300000D01*
X90240000Y-71240000D02*
X101190000Y-82190000D01*
X90240000Y-55000000D02*
X90240000Y-71240000D01*
X82620000Y-75410000D02*
X87970000Y-80760000D01*
X82620000Y-55000000D02*
X82620000Y-75410000D01*
X70190000Y-83300000D02*
X75000000Y-78490000D01*
X75000000Y-55000000D02*
X75000000Y-78490000D01*
D11*
%TO.C,S8*%
X188500000Y-168500000D03*
X188500000Y-164690000D03*
X188500000Y-160880000D03*
X191040000Y-181200000D03*
X185960000Y-181200000D03*
%TD*%
%TO.C,S7*%
X176500000Y-168500000D03*
X176500000Y-164690000D03*
X176500000Y-160880000D03*
X179040000Y-181200000D03*
X173960000Y-181200000D03*
%TD*%
%TO.C,S6*%
X152000000Y-168500000D03*
X152000000Y-164690000D03*
X152000000Y-160880000D03*
X154540000Y-181200000D03*
X149460000Y-181200000D03*
%TD*%
%TO.C,S5*%
X140000000Y-168500000D03*
X140000000Y-164690000D03*
X140000000Y-160880000D03*
X142540000Y-181200000D03*
X137460000Y-181200000D03*
%TD*%
%TO.C,S4*%
X115500000Y-168500000D03*
X115500000Y-164690000D03*
X115500000Y-160880000D03*
X118040000Y-181200000D03*
X112960000Y-181200000D03*
%TD*%
%TO.C,S3*%
X103500000Y-168500000D03*
X103500000Y-164690000D03*
X103500000Y-160880000D03*
X106040000Y-181200000D03*
X100960000Y-181200000D03*
%TD*%
%TO.C,S2*%
X79000000Y-168500000D03*
X79000000Y-164690000D03*
X79000000Y-160880000D03*
X81540000Y-181200000D03*
X76460000Y-181200000D03*
%TD*%
%TO.C,S1*%
X67000000Y-168500000D03*
X67000000Y-164690000D03*
X67000000Y-160880000D03*
X69540000Y-181200000D03*
X64460000Y-181200000D03*
%TD*%
D12*
%TO.C,RV4*%
X82500000Y-66100000D03*
X75000000Y-63000000D03*
%TD*%
%TO.C,RV3*%
X97800000Y-66100000D03*
X90300000Y-63000000D03*
%TD*%
%TO.C,RV2*%
X168500000Y-66100000D03*
X161000000Y-63000000D03*
%TD*%
%TO.C,RV1*%
X183800000Y-66100000D03*
X176300000Y-63000000D03*
%TD*%
D13*
%TO.C,J3*%
X191000000Y-57590000D03*
X203040000Y-57590000D03*
D14*
X195770000Y-60300000D03*
X198270000Y-60300000D03*
D15*
X195770000Y-62300000D03*
D14*
X198270000Y-62300000D03*
%TD*%
D16*
%TO.C,J2*%
X97860000Y-55000000D03*
X90240000Y-55000000D03*
X82620000Y-55000000D03*
X75000000Y-55000000D03*
%TD*%
%TO.C,J1*%
X183860000Y-55000000D03*
X176240000Y-55000000D03*
X168620000Y-55000000D03*
X161000000Y-55000000D03*
%TD*%
D17*
%TO.C,K4*%
X87970000Y-80760000D03*
D18*
X70190000Y-83300000D03*
D19*
X74000000Y-96000000D03*
D20*
X84160000Y-96000000D03*
%TD*%
D17*
%TO.C,K3*%
X118970000Y-85760000D03*
D18*
X101190000Y-88300000D03*
D19*
X105000000Y-101000000D03*
D20*
X115160000Y-101000000D03*
%TD*%
D17*
%TO.C,K2*%
X159970000Y-85760000D03*
D18*
X142190000Y-88300000D03*
D19*
X146000000Y-101000000D03*
D20*
X156160000Y-101000000D03*
%TD*%
D17*
%TO.C,K1*%
X190970000Y-80760000D03*
D18*
X173190000Y-83300000D03*
D19*
X177000000Y-96000000D03*
D20*
X187160000Y-96000000D03*
%TD*%
D21*
%TO.C,J5*%
X68000000Y-143080000D03*
X68000000Y-138000000D03*
D22*
X68000000Y-132920000D03*
%TD*%
D23*
%TO.C,LED4*%
X200040000Y-178960000D03*
X197500000Y-178960000D03*
X200040000Y-181500000D03*
X197500000Y-181500000D03*
%TD*%
%TO.C,LED3*%
X163540000Y-178960000D03*
X161000000Y-178960000D03*
X163540000Y-181500000D03*
X161000000Y-181500000D03*
%TD*%
%TO.C,LED2*%
X127040000Y-178960000D03*
X124500000Y-178960000D03*
X127040000Y-181500000D03*
X124500000Y-181500000D03*
%TD*%
%TO.C,LED1*%
X90540000Y-178960000D03*
X88000000Y-178960000D03*
X90540000Y-181500000D03*
X88000000Y-181500000D03*
%TD*%
D24*
%TO.C,PS1*%
X80000000Y-128000000D03*
X80000000Y-148320000D03*
X125720000Y-148320000D03*
X125720000Y-138160000D03*
X125720000Y-128000000D03*
%TD*%
D25*
%TO.C,J6*%
X145500000Y-70000000D03*
X143000000Y-70000000D03*
G36*
G01*
X139650000Y-70725000D02*
X139650000Y-69275000D01*
G75*
G02*
X139900000Y-69025000I250000J0D01*
G01*
X141100000Y-69025000D01*
G75*
G02*
X141350000Y-69275000I0J-250000D01*
G01*
X141350000Y-70725000D01*
G75*
G02*
X141100000Y-70975000I-250000J0D01*
G01*
X139900000Y-70975000D01*
G75*
G02*
X139650000Y-70725000I0J250000D01*
G01*
G37*
%TD*%
D26*
%TO.C,H4*%
X212000000Y-171000000D03*
%TD*%
%TO.C,H3*%
X65000000Y-153000000D03*
%TD*%
%TO.C,H2*%
X212000000Y-64000000D03*
%TD*%
%TO.C,H1*%
X65000000Y-54000000D03*
%TD*%
M02*
