%TF.GenerationSoftware,KiCad,Pcbnew,5.1.10-88a1d61d58~90~ubuntu20.04.1*%
%TF.CreationDate,2021-10-18T00:01:49+03:00*%
%TF.ProjectId,PRS_rear_panel,5052535f-7265-4617-925f-70616e656c2e,rev?*%
%TF.SameCoordinates,Original*%
%TF.FileFunction,Profile,NP*%
%FSLAX46Y46*%
G04 Gerber Fmt 4.6, Leading zero omitted, Abs format (unit mm)*
G04 Created by KiCad (PCBNEW 5.1.10-88a1d61d58~90~ubuntu20.04.1) date 2021-10-18 00:01:49*
%MOMM*%
%LPD*%
G01*
G04 APERTURE LIST*
%TA.AperFunction,Profile*%
%ADD10C,0.200000*%
%TD*%
G04 APERTURE END LIST*
D10*
X194280000Y-76350000D02*
G75*
G02*
X193780000Y-75850000I0J500000D01*
G01*
X194280000Y-76350000D02*
X199280000Y-76350000D01*
X193780000Y-72850000D02*
X193780000Y-75850000D01*
X193280000Y-72350000D02*
G75*
G02*
X193780000Y-72850000I0J-500000D01*
G01*
X193280000Y-72350000D02*
X191780000Y-72350000D01*
X191280000Y-72850000D02*
G75*
G02*
X191780000Y-72350000I500000J0D01*
G01*
X191280000Y-72850000D02*
X191280000Y-75850000D01*
X191280000Y-75850000D02*
G75*
G02*
X190780000Y-76350000I-500000J0D01*
G01*
X177320000Y-76350000D02*
X190780000Y-76350000D01*
X177320000Y-76350000D02*
G75*
G02*
X176820000Y-75850000I0J500000D01*
G01*
X176820000Y-72850000D02*
X176820000Y-75850000D01*
X176320000Y-72350000D02*
G75*
G02*
X176820000Y-72850000I0J-500000D01*
G01*
X174820000Y-72350000D02*
X176320000Y-72350000D01*
X174320000Y-72850000D02*
G75*
G02*
X174820000Y-72350000I500000J0D01*
G01*
X174320000Y-72850000D02*
X174320000Y-75850000D01*
X174320000Y-75850000D02*
G75*
G02*
X173820000Y-76350000I-500000J0D01*
G01*
X168820000Y-76350000D02*
X173820000Y-76350000D01*
X108279999Y-76350000D02*
G75*
G02*
X107779999Y-75850000I0J500000D01*
G01*
X108279999Y-76350000D02*
X113280000Y-76350000D01*
X107779999Y-72850000D02*
X107779999Y-75850000D01*
X107279999Y-72350000D02*
G75*
G02*
X107779999Y-72850000I0J-500000D01*
G01*
X107279999Y-72350000D02*
X105779999Y-72350000D01*
X105279999Y-72850000D02*
G75*
G02*
X105779999Y-72350000I500000J0D01*
G01*
X105279999Y-72850000D02*
X105279999Y-75850000D01*
X105279999Y-75850000D02*
G75*
G02*
X104779999Y-76350000I-500000J0D01*
G01*
X91320000Y-76350000D02*
X104779999Y-76350000D01*
X91320000Y-76350000D02*
G75*
G02*
X90820000Y-75850000I0J500000D01*
G01*
X90820000Y-72850000D02*
X90820000Y-75850000D01*
X90320000Y-72350000D02*
G75*
G02*
X90820000Y-72850000I0J-500000D01*
G01*
X88820000Y-72350000D02*
X90320000Y-72350000D01*
X88320000Y-72850000D02*
G75*
G02*
X88820000Y-72350000I500000J0D01*
G01*
X88320000Y-72850000D02*
X88320000Y-75850000D01*
X88320000Y-75850000D02*
G75*
G02*
X87820000Y-76350000I-500000J0D01*
G01*
X82820000Y-76350000D02*
X87820000Y-76350000D01*
X199280000Y-76350000D02*
G75*
G02*
X199780000Y-76850000I0J-500000D01*
G01*
X168320000Y-76850000D02*
G75*
G02*
X168820000Y-76350000I500000J0D01*
G01*
X199780000Y-85350000D02*
X199780000Y-76850000D01*
X168320000Y-85350000D02*
X168320000Y-76850000D01*
X113280000Y-76350000D02*
G75*
G02*
X113780000Y-76850000I0J-500000D01*
G01*
X82320000Y-76850000D02*
G75*
G02*
X82820000Y-76350000I500000J0D01*
G01*
X113780000Y-85350000D02*
X113780000Y-76850000D01*
X82320000Y-85350000D02*
X82320000Y-76850000D01*
X225850000Y-54500000D02*
G75*
G03*
X225850000Y-54500000I-1600000J0D01*
G01*
X225850000Y-94500000D02*
G75*
G03*
X225850000Y-94500000I-1600000J0D01*
G01*
X214800000Y-90000000D02*
G75*
G02*
X213000000Y-88200000I0J1800000D01*
G01*
X213000000Y-88200000D02*
X213000000Y-60800000D01*
X214800000Y-90000000D02*
X233700000Y-90000000D01*
X235500000Y-88200000D02*
G75*
G02*
X233700000Y-90000000I-1800000J0D01*
G01*
X235500000Y-88200000D02*
X235500000Y-60800000D01*
X233700000Y-59000000D02*
G75*
G02*
X235500000Y-60800000I0J-1800000D01*
G01*
X214800000Y-59000000D02*
X233700000Y-59000000D01*
X213000000Y-60800000D02*
G75*
G02*
X214800000Y-59000000I1800000J0D01*
G01*
X122125413Y-89000000D02*
G75*
G02*
X121723826Y-88797872I0J500000D01*
G01*
X121723826Y-88797873D02*
G75*
G02*
X121723826Y-60202127I19276174J14297873D01*
G01*
X122125413Y-89000000D02*
X159874586Y-88999999D01*
X160276173Y-88797872D02*
G75*
G02*
X159874586Y-89000000I-401587J297872D01*
G01*
X160276173Y-60202127D02*
G75*
G02*
X160276173Y-88797872I-19276173J-14297873D01*
G01*
X159874586Y-59999999D02*
G75*
G02*
X160276173Y-60202127I0J-500000D01*
G01*
X122125413Y-60000000D02*
X159874586Y-59999999D01*
X121723826Y-60202128D02*
G75*
G02*
X122125413Y-60000000I401587J-297872D01*
G01*
X163150000Y-54500000D02*
G75*
G03*
X163150000Y-54500000I-2150000J0D01*
G01*
X123150000Y-54500000D02*
G75*
G03*
X123150000Y-54500000I-2150000J0D01*
G01*
X163150000Y-94500000D02*
G75*
G03*
X163150000Y-94500000I-2150000J0D01*
G01*
X123150000Y-94500000D02*
G75*
G03*
X123150000Y-94500000I-2150000J0D01*
G01*
X168820000Y-85850000D02*
G75*
G02*
X168320000Y-85350000I0J500000D01*
G01*
X168820000Y-85850000D02*
X199280000Y-85850000D01*
X199780000Y-85350000D02*
G75*
G02*
X199280000Y-85850000I-500000J0D01*
G01*
X82820000Y-85850000D02*
G75*
G02*
X82320000Y-85350000I0J500000D01*
G01*
X82820000Y-85850000D02*
X113280000Y-85850000D01*
X113780000Y-85350000D02*
G75*
G02*
X113280000Y-85850000I-500000J0D01*
G01*
X67380000Y-85550001D02*
G75*
G02*
X66879999Y-85050000I0J500001D01*
G01*
X66879999Y-85050000D02*
X66879999Y-74250000D01*
X67380000Y-85550000D02*
X79580000Y-85550000D01*
X80080000Y-85050000D02*
G75*
G02*
X79580000Y-85550000I-500000J0D01*
G01*
X80080000Y-85050000D02*
X80080000Y-74250000D01*
X79580000Y-73750000D02*
G75*
G02*
X80080000Y-74250000I0J-500000D01*
G01*
X67380000Y-73750000D02*
X79580000Y-73750000D01*
X66880000Y-74250000D02*
G75*
G02*
X67380000Y-73750000I500000J0D01*
G01*
X51000000Y-100000000D02*
G75*
G02*
X50000000Y-99000000I0J1000000D01*
G01*
X50000000Y-99000000D02*
X50000000Y-50000000D01*
X51000000Y-100000000D02*
X252000000Y-100000000D01*
X253000000Y-99000000D02*
G75*
G02*
X252000000Y-100000000I-1000000J0D01*
G01*
X253000000Y-99000000D02*
X253000000Y-50000000D01*
X252000000Y-49000000D02*
G75*
G02*
X253000000Y-50000000I0J-1000000D01*
G01*
X51000000Y-49000000D02*
X252000000Y-49000000D01*
X50000000Y-50000000D02*
G75*
G02*
X51000000Y-49000000I1000000J0D01*
G01*
X248650000Y-53500000D02*
G75*
G03*
X248650000Y-53500000I-2650000J0D01*
G01*
X248650000Y-95500000D02*
G75*
G03*
X248650000Y-95500000I-2650000J0D01*
G01*
X59650000Y-53500000D02*
G75*
G03*
X59650000Y-53500000I-2650000J0D01*
G01*
X59650000Y-95500000D02*
G75*
G03*
X59650000Y-95500000I-2650000J0D01*
G01*
M02*
